<?xml version="1.0" encoding="utf-8"?>
<!-- Generator: Adobe Illustrator 19.0.1, SVG Export Plug-In . SVG Version: 6.00 Build 0)  -->
<svg version="1.1" id="Layer_1" xmlns="http://www.w3.org/2000/svg" xmlns:xlink="http://www.w3.org/1999/xlink" x="0px" y="0px"
	 viewBox="-14 138 566.9 566.9" style="enable-background:new -14 138 566.9 566.9;" xml:space="preserve">
<style type="text/css">
	.st0{fill:#EAB02F;}
	.st1{fill:#FFFFFF;}
</style>
<circle class="st0" cx="269.5" cy="421.5" r="283.5"/>
<g>
	<path class="st1" d="M177.1,394.3c7.5-10.4,11.4-20.8,11.4-31.4s-4-19.6-12.1-27.1c-8.1-7.4-18.3-11.2-30.6-11.2
		c-21.7,0-39.7,11.1-54.1,33.3l-36-20.8c11.6-17.4,24.4-30.5,38.4-39.3c14-8.8,32-13.3,54.1-13.3s41.4,7,58.1,21
		c16.6,14,25,33.1,25,57.3c0,13.6-3.5,26.6-10.6,39s-20.1,28.3-39,47.7l-62,63.2h119.9v42.7H58.7v-37.8l80.2-80.6
		C156.7,418.9,169.5,404.7,177.1,394.3z"/>
	<path class="st1" d="M308.7,521.2c-17.9-24.8-26.9-58.1-26.9-99.7s8.9-74.9,26.9-99.7c17.9-24.8,44.9-37.2,80.9-37.2
		s63,12.4,80.9,37.2s26.9,58.1,26.9,99.7s-9,74.9-26.9,99.7c-17.9,24.8-44.9,37.2-80.9,37.2S326.6,546,308.7,521.2z M340.6,350.1
		c-10.4,18.2-15.7,42-15.7,71.5c0,29.5,5.3,53.3,15.7,71.5c10.4,18.2,26.8,27.3,49,27.3s38.4-9,48.6-27.1
		c10.2-18,15.4-41.9,15.4-71.7c0-29.7-5.1-53.6-15.4-71.7c-10.2-18-26.4-27.1-48.6-27.1C367.4,322.8,351.1,331.9,340.6,350.1z"/>
</g>
</svg>
