<?xml version="1.0" encoding="utf-8"?>
<!-- Generator: Adobe Illustrator 19.0.1, SVG Export Plug-In . SVG Version: 6.00 Build 0)  -->
<svg version="1.1" id="Layer_1" xmlns="http://www.w3.org/2000/svg" xmlns:xlink="http://www.w3.org/1999/xlink" x="0px" y="0px"
	 viewBox="0 0 850.4 850.4" style="enable-background:new 0 0 850.4 850.4;" xml:space="preserve">
<style type="text/css">
	.st0{fill:#30A0DA;stroke:#0081BC;stroke-miterlimit:10;}
	.st1{fill:#FFFFFF;}
</style>
<circle class="st0" cx="425.2" cy="425.2" r="425.2"/>
<g>
	<path class="st1" d="M179.5,605h-77.9V215.7h155.8c14.3,0,28.1,1.9,41.3,5.6c13.2,3.7,25.6,9,37.1,15.7c11.5,6.8,22,14.9,31.5,24.4
		c9.5,9.5,17.6,20,24.4,31.6c6.8,11.6,12,24,15.7,37.2c3.7,13.2,5.6,27,5.6,41.3c0,21.4-4.1,41.5-12.2,60.4
		c-8.1,18.9-19.3,35.4-33.4,49.5c-14.1,14.1-30.6,25.2-49.5,33.4c-18.9,8.1-39.1,12.2-60.4,12.2h-77.9V605z M179.5,293.6v155.8h77.9
		c10.7,0,20.7-2,30.1-6.1c9.4-4.1,17.6-9.6,24.7-16.7c7.1-7.1,12.6-15.3,16.7-24.8c4.1-9.5,6.1-19.6,6.1-30.3
		c0-10.7-2-20.8-6.1-30.3c-4.1-9.5-9.6-17.8-16.7-24.8c-7.1-7.1-15.3-12.6-24.7-16.7c-9.4-4.1-19.5-6.1-30.1-6.1H179.5z"/>
	<path class="st1" d="M536.5,605h-77.9V215.7h155.8c14.3,0,28.1,1.9,41.3,5.6c13.2,3.7,25.6,9,37.1,15.7c11.5,6.8,22,14.9,31.5,24.4
		c9.5,9.5,17.6,20,24.4,31.6c6.8,11.6,12,24,15.7,37.2c3.7,13.2,5.6,27,5.6,41.3c0,13.4-1.7,26.4-5,39.1
		c-3.4,12.7-8.1,24.7-14.4,36.1c-6.2,11.4-13.9,21.9-22.9,31.5c-9.1,9.6-19.2,17.9-30.4,25L740.4,605h-82.8l-33.9-78.5l-87.1,0.5
		V605z M536.5,293.6v155.8h77.9c10.7,0,20.7-2,30.1-6.1c9.4-4.1,17.6-9.6,24.7-16.7c7.1-7.1,12.6-15.3,16.7-24.8
		c4.1-9.5,6.1-19.6,6.1-30.3c0-10.7-2-20.8-6.1-30.3c-4.1-9.5-9.6-17.8-16.7-24.8c-7.1-7.1-15.3-12.6-24.7-16.7
		c-9.4-4.1-19.5-6.1-30.1-6.1H536.5z"/>
</g>
</svg>
