<?xml version="1.0" encoding="utf-8"?>
<!-- Generator: Adobe Illustrator 19.0.1, SVG Export Plug-In . SVG Version: 6.00 Build 0)  -->
<svg version="1.1" id="Layer_1" xmlns="http://www.w3.org/2000/svg" xmlns:xlink="http://www.w3.org/1999/xlink" x="0px" y="0px"
	 viewBox="0 0 963.8 255.1" style="enable-background:new 0 0 963.8 255.1;" xml:space="preserve">
<style type="text/css">
	.st0{fill:#30A0DA;stroke:#0081BC;stroke-miterlimit:10;}
	.st1{fill:#FFFFFF;}
</style>
<circle class="st0" cx="132.1" cy="128.6" r="122.2"/>
<g>
	<path class="st1" d="M61.4,180.3H39V68.3h44.8c4.1,0,8.1,0.5,11.9,1.6c3.8,1.1,7.3,2.6,10.7,4.5c3.3,2,6.3,4.3,9.1,7
		c2.7,2.7,5.1,5.8,7,9.1c2,3.3,3.5,6.9,4.5,10.7c1.1,3.8,1.6,7.8,1.6,11.9c0,6.1-1.2,11.9-3.5,17.4c-2.3,5.4-5.5,10.2-9.6,14.2
		c-4.1,4.1-8.8,7.3-14.2,9.6c-5.4,2.3-11.2,3.5-17.4,3.5H61.4V180.3z M61.4,90.7v44.8h22.4c3.1,0,6-0.6,8.7-1.8
		c2.7-1.2,5.1-2.8,7.1-4.8c2-2,3.6-4.4,4.8-7.1c1.2-2.7,1.8-5.6,1.8-8.7c0-3.1-0.6-6-1.8-8.7c-1.2-2.7-2.8-5.1-4.8-7.1
		c-2-2-4.4-3.6-7.1-4.8c-2.7-1.2-5.6-1.8-8.7-1.8H61.4z"/>
	<path class="st1" d="M164.1,180.3h-22.4V68.3h44.8c4.1,0,8.1,0.5,11.9,1.6c3.8,1.1,7.3,2.6,10.7,4.5c3.3,2,6.3,4.3,9.1,7
		c2.7,2.7,5.1,5.8,7,9.1c2,3.3,3.5,6.9,4.5,10.7c1.1,3.8,1.6,7.8,1.6,11.9c0,3.9-0.5,7.6-1.4,11.2c-1,3.6-2.3,7.1-4.1,10.4
		c-1.8,3.3-4,6.3-6.6,9.1c-2.6,2.8-5.5,5.2-8.7,7.2l12.4,29.3h-23.8l-9.8-22.6l-25.1,0.2V180.3z M164.1,90.7v44.8h22.4
		c3.1,0,6-0.6,8.7-1.8c2.7-1.2,5.1-2.8,7.1-4.8c2-2,3.6-4.4,4.8-7.1c1.2-2.7,1.8-5.6,1.8-8.7c0-3.1-0.6-6-1.8-8.7
		c-1.2-2.7-2.8-5.1-4.8-7.1c-2-2-4.4-3.6-7.1-4.8c-2.7-1.2-5.6-1.8-8.7-1.8H164.1z"/>
</g>
<g>
	<path d="M282.3,155.6V86.5h28.4c2.9,0,5.6,0.6,8.1,1.9c2.5,1.2,4.6,2.9,6.4,4.9c1.8,2,3.2,4.4,4.2,6.9c1,2.6,1.5,5.1,1.5,7.7
		c0,2.8-0.5,5.5-1.4,8.1c-0.9,2.6-2.3,4.9-4,6.9c-1.7,2-3.8,3.6-6.1,4.8c-2.4,1.2-5,1.8-7.9,1.8h-24.2v26.1H282.3z M287.3,124.9
		h23.9c2.3,0,4.3-0.5,6.1-1.4c1.8-0.9,3.4-2.2,4.6-3.8c1.3-1.6,2.2-3.4,2.9-5.5c0.7-2,1-4.2,1-6.4c0-2.3-0.4-4.4-1.2-6.5
		c-0.8-2-1.9-3.8-3.3-5.4c-1.4-1.6-3-2.8-4.9-3.7c-1.9-0.9-3.8-1.4-5.9-1.4h-23.3V124.9z"/>
	<path d="M362.8,156.6c-3.6,0-6.9-0.7-9.9-2.1c-3.1-1.4-5.7-3.3-7.9-5.7c-2.2-2.4-4-5.2-5.3-8.4c-1.3-3.2-1.9-6.6-1.9-10.2
		c0-3.6,0.6-6.9,1.9-10.1c1.3-3.1,3-5.9,5.2-8.3c2.2-2.4,4.8-4.2,7.9-5.6c3.1-1.4,6.3-2,9.8-2c3.6,0,6.9,0.7,9.9,2.1
		c3,1.4,5.6,3.3,7.8,5.6c2.2,2.4,3.9,5.1,5.2,8.3c1.3,3.2,1.9,6.5,1.9,10c0,0.3,0,0.7,0,1.2c0,0.5,0,0.8,0,0.9h-44.5
		c0.2,2.9,0.9,5.6,2,8.1c1.2,2.5,2.6,4.7,4.4,6.5c1.8,1.8,3.8,3.2,6.2,4.3c2.3,1,4.8,1.6,7.5,1.6c1.8,0,3.5-0.2,5.2-0.7
		c1.7-0.5,3.3-1.2,4.8-2c1.5-0.8,2.8-1.9,3.9-3.1c1.1-1.2,2-2.5,2.7-3.9l4.3,1.2c-0.8,1.8-1.9,3.5-3.3,5c-1.4,1.5-3,2.8-4.9,3.9
		c-1.9,1.1-3.9,2-6.1,2.6C367.4,156.3,365.2,156.6,362.8,156.6z M382.7,128.3c-0.2-3-0.9-5.7-2-8.2c-1.1-2.5-2.6-4.6-4.4-6.4
		c-1.8-1.8-3.8-3.2-6.2-4.2c-2.3-1-4.8-1.5-7.5-1.5c-2.7,0-5.2,0.5-7.5,1.5c-2.3,1-4.4,2.4-6.2,4.2c-1.8,1.8-3.2,3.9-4.3,6.4
		c-1.1,2.5-1.7,5.2-1.9,8.1H382.7z"/>
	<path d="M420.4,153.2c-0.3,0.1-0.7,0.4-1.3,0.7c-0.6,0.4-1.4,0.7-2.3,1c-0.9,0.3-2,0.6-3.2,0.9c-1.2,0.3-2.4,0.4-3.8,0.4
		s-2.6-0.2-3.8-0.6c-1.2-0.4-2.3-1-3.2-1.8c-0.9-0.8-1.6-1.7-2.2-2.8c-0.6-1.1-0.8-2.4-0.8-3.9V109h-7.1v-4h7.1V87.6h4.9V105h11.9v4
		h-11.9v37c0,1.9,0.6,3.3,1.9,4.2c1.3,0.9,2.8,1.4,4.5,1.4c2,0,3.7-0.3,5.2-1s2.4-1.1,2.7-1.3L420.4,153.2z"/>
	<path d="M450.2,156.6c-3.6,0-6.9-0.7-9.9-2.1c-3.1-1.4-5.7-3.3-7.9-5.7c-2.2-2.4-4-5.2-5.3-8.4c-1.3-3.2-1.9-6.6-1.9-10.2
		c0-3.6,0.6-6.9,1.9-10.1c1.3-3.1,3-5.9,5.2-8.3c2.2-2.4,4.8-4.2,7.9-5.6c3.1-1.4,6.3-2,9.8-2c3.6,0,6.9,0.7,9.9,2.1
		c3,1.4,5.6,3.3,7.8,5.6c2.2,2.4,3.9,5.1,5.2,8.3c1.3,3.2,1.9,6.5,1.9,10c0,0.3,0,0.7,0,1.2s0,0.8,0,0.9h-44.5
		c0.2,2.9,0.9,5.6,2,8.1c1.2,2.5,2.6,4.7,4.4,6.5c1.8,1.8,3.8,3.2,6.2,4.3c2.3,1,4.8,1.6,7.5,1.6c1.8,0,3.5-0.2,5.2-0.7
		c1.7-0.5,3.3-1.2,4.8-2c1.5-0.8,2.8-1.9,3.9-3.1c1.1-1.2,2-2.5,2.7-3.9l4.3,1.2c-0.8,1.8-1.9,3.5-3.3,5c-1.4,1.5-3,2.8-4.9,3.9
		c-1.9,1.1-3.9,2-6.1,2.6C454.8,156.3,452.5,156.6,450.2,156.6z M470.1,128.3c-0.2-3-0.9-5.7-2-8.2c-1.1-2.5-2.6-4.6-4.4-6.4
		c-1.8-1.8-3.8-3.2-6.2-4.2c-2.3-1-4.8-1.5-7.5-1.5c-2.7,0-5.2,0.5-7.5,1.5c-2.3,1-4.4,2.4-6.2,4.2c-1.8,1.8-3.2,3.9-4.3,6.4
		c-1.1,2.5-1.7,5.2-1.9,8.1H470.1z"/>
	<path d="M509.4,109.4c-4.6,0.1-8.6,1.5-12,4c-3.4,2.6-5.7,6.1-7.1,10.6v31.7h-4.9V105h4.6v12.5c1.8-3.6,4.1-6.5,7-8.7
		c2.9-2.2,6-3.5,9.3-3.8c0.6,0,1.2,0,1.8,0c0.5,0,1,0,1.4,0V109.4z"/>
	<path d="M543.6,155.6V86.5h28.8c2.9,0,5.6,0.6,8.1,1.9c2.5,1.2,4.6,2.9,6.3,4.9c1.8,2,3.1,4.4,4.1,6.9c1,2.6,1.5,5.1,1.5,7.7
		c0,2.5-0.4,5-1.2,7.4c-0.8,2.4-1.9,4.5-3.3,6.4c-1.4,1.9-3.1,3.4-5.2,4.7c-2,1.2-4.2,2-6.6,2.4l17.2,26.9h-5.7L571,129.5h-22.4
		v26.1H543.6z M548.6,124.9h24.3c2.2,0,4.2-0.5,6-1.5c1.8-1,3.4-2.3,4.7-3.8c1.3-1.6,2.3-3.4,3-5.5c0.7-2,1-4.1,1-6.3
		c0-2.2-0.4-4.3-1.2-6.4c-0.8-2-1.9-3.8-3.3-5.4c-1.4-1.6-3-2.8-4.9-3.7c-1.9-0.9-3.8-1.4-6-1.4h-23.6V124.9z"/>
	<path d="M605.1,93.5v-9h4.9v9H605.1z M605.1,155.6V105h4.9v50.6H605.1z"/>
	<path d="M621.6,130.1c0-3.6,0.6-6.9,1.8-10.1c1.2-3.2,3-5.9,5.2-8.3s4.9-4.2,7.9-5.6c3.1-1.4,6.4-2,10-2c4.6,0,8.7,1,12.1,3.1
		c3.5,2.1,6.1,5,7.9,8.7l-4.8,1.6c-1.5-2.8-3.6-5-6.4-6.6c-2.8-1.6-5.8-2.4-9.2-2.4c-2.8,0-5.4,0.6-7.8,1.7
		c-2.4,1.1-4.5,2.6-6.3,4.6c-1.8,1.9-3.2,4.2-4.2,6.9c-1,2.6-1.5,5.5-1.5,8.5c0,3.1,0.5,5.9,1.6,8.6c1.1,2.7,2.5,5,4.3,7
		c1.8,2,3.9,3.6,6.3,4.7c2.4,1.2,5,1.8,7.7,1.8c1.8,0,3.5-0.3,5.2-0.8c1.7-0.5,3.3-1.2,4.8-2c1.5-0.8,2.7-1.8,3.8-3
		c1.1-1.1,1.8-2.3,2.2-3.6l4.8,1.4c-0.6,1.8-1.6,3.4-3,4.9c-1.3,1.5-2.9,2.8-4.7,3.9c-1.8,1.1-3.8,2-6,2.6c-2.2,0.6-4.4,0.9-6.8,0.9
		c-3.6,0-6.9-0.7-9.9-2.1c-3.1-1.4-5.7-3.3-7.9-5.7c-2.2-2.4-4-5.2-5.3-8.4C622.3,137.1,621.6,133.7,621.6,130.1z"/>
	<path d="M719.6,155.6h-4.9v-28.2c0-6.3-1.1-11-3.2-14.1c-2.1-3.1-5.3-4.7-9.3-4.7c-2.1,0-4.1,0.4-6.1,1.2c-2,0.8-3.9,1.9-5.6,3.3
		c-1.7,1.4-3.2,3.1-4.5,5c-1.3,1.9-2.2,4-2.8,6.2v31.4h-4.9V84.5h4.9v32.5c2.1-4,5-7.1,8.6-9.4c3.7-2.3,7.6-3.5,11.8-3.5
		c2.8,0,5.2,0.5,7.2,1.6c2,1,3.7,2.5,5,4.5c1.3,1.9,2.3,4.3,2.9,7.1c0.6,2.8,0.9,5.9,0.9,9.3V155.6z"/>
	<path d="M746.6,156.6c-2.3,0-4.5-0.4-6.6-1.2c-2-0.8-3.8-1.9-5.4-3.3c-1.5-1.4-2.7-3.1-3.6-5c-0.8-1.9-1.3-4-1.3-6.2
		c0-2.2,0.5-4.2,1.6-6c1-1.8,2.5-3.4,4.4-4.7c1.9-1.3,4.1-2.4,6.7-3.1c2.6-0.7,5.4-1.1,8.5-1.1c2.7,0,5.5,0.2,8.3,0.7
		c2.8,0.5,5.3,1.2,7.5,2v-5c0-4.8-1.4-8.6-4.1-11.4c-2.7-2.8-6.4-4.2-11.1-4.2c-2.5,0-5.2,0.5-7.9,1.6c-2.8,1-5.5,2.5-8.3,4.5
		l-1.9-3.3c6.6-4.4,12.7-6.6,18.5-6.6c6.1,0,10.9,1.8,14.5,5.3c3.5,3.5,5.3,8.4,5.3,14.7v24.7c0,1.6,0.7,2.4,2,2.4v4.4
		c-0.3,0.1-0.6,0.1-0.9,0.1s-0.6,0-0.8,0c-1.2,0-2.2-0.4-3.2-1.2c-1-0.8-1.5-1.9-1.5-3.2v-4.2c-2.3,3.1-5.3,5.4-8.9,7
		S750.8,156.6,746.6,156.6z M747.5,152.7c3.8,0,7.2-0.7,10.4-2.1c3.2-1.4,5.6-3.3,7.1-5.7c1.1-1.3,1.7-2.6,1.7-3.9v-9
		c-4.9-1.8-10-2.7-15.2-2.7c-5.1,0-9.2,1-12.3,3.1c-3.1,2.1-4.7,4.8-4.7,8.2c0,1.7,0.3,3.3,1,4.8c0.6,1.5,1.6,2.8,2.7,3.8
		s2.5,1.9,4.1,2.5C744,152.4,745.7,152.7,747.5,152.7z"/>
	<path d="M810.4,109.4c-4.6,0.1-8.6,1.5-12,4c-3.4,2.6-5.7,6.1-7.1,10.6v31.7h-4.9V105h4.6v12.5c1.8-3.6,4.1-6.5,7-8.7
		c2.9-2.2,6-3.5,9.3-3.8c0.6,0,1.2,0,1.8,0c0.5,0,1,0,1.4,0V109.4z"/>
	<path d="M838.1,156.6c-3.5,0-6.8-0.7-9.7-2.2c-3-1.5-5.6-3.4-7.7-5.8c-2.2-2.4-3.9-5.2-5.1-8.4c-1.2-3.1-1.8-6.4-1.8-9.8
		c0-3.5,0.6-6.8,1.8-10c1.2-3.2,2.8-6,4.9-8.4c2.1-2.4,4.5-4.3,7.4-5.7c2.8-1.4,5.9-2.1,9.3-2.1c2.2,0,4.3,0.3,6.3,1
		c2,0.6,3.8,1.5,5.5,2.6c1.7,1.1,3.2,2.3,4.5,3.7c1.4,1.4,2.5,3,3.5,4.6V84.5h4.9v64.3c0,1.6,0.7,2.4,2,2.4v4.4
		c-0.3,0.1-0.6,0.1-0.9,0.1c-0.3,0-0.5,0-0.8,0c-1.4,0-2.6-0.5-3.5-1.4c-0.9-0.9-1.3-1.9-1.3-3v-5.8c-2.1,3.4-4.9,6.1-8.3,8.1
		C845.5,155.6,841.9,156.6,838.1,156.6z M839,152.2c1.8,0,3.6-0.4,5.6-1.1c2-0.7,3.9-1.7,5.6-3c1.8-1.3,3.2-2.7,4.4-4.3
		c1.2-1.6,1.9-3.4,2.1-5.3v-16.7c-0.7-1.8-1.7-3.6-3.1-5.2c-1.3-1.7-2.8-3.1-4.5-4.3c-1.7-1.2-3.5-2.2-5.5-2.9
		c-1.9-0.7-3.8-1.1-5.6-1.1c-2.9,0-5.6,0.6-7.9,1.9c-2.4,1.3-4.4,2.9-6.1,5c-1.7,2-3,4.4-3.9,7c-0.9,2.6-1.4,5.3-1.4,8.1
		c0,2.9,0.5,5.7,1.6,8.3c1,2.6,2.5,4.9,4.3,6.9c1.9,2,4,3.6,6.4,4.8C833.5,151.6,836.1,152.2,839,152.2z"/>
	<path d="M893.3,156.6c-3.9,0-7.6-0.6-11.2-1.9c-3.6-1.3-6.7-3.2-9.3-5.8l2.4-3.3c2.7,2.5,5.6,4.3,8.5,5.5s6.1,1.8,9.6,1.8
		c4.4,0,8-0.9,10.7-2.8c2.7-1.9,4-4.4,4-7.7c0-1.6-0.3-2.9-1-3.9s-1.7-2-3.1-2.7c-1.4-0.7-3.1-1.4-5.1-2c-2-0.6-4.4-1.2-7-1.9
		c-2.9-0.6-5.3-1.3-7.5-1.9c-2.1-0.6-3.8-1.4-5.2-2.3c-1.4-0.9-2.4-2-3.1-3.3c-0.7-1.3-1-3-1-5c0-2.5,0.5-4.7,1.5-6.6
		c1-1.9,2.3-3.4,4-4.7c1.7-1.2,3.7-2.2,5.9-2.8c2.2-0.6,4.6-0.9,7.2-0.9c4,0,7.5,0.7,10.5,2c3.1,1.3,5.4,3,7.1,5.1l-2.7,2.6
		c-1.7-1.9-3.9-3.4-6.6-4.4c-2.7-1-5.6-1.5-8.6-1.5c-1.9,0-3.7,0.2-5.3,0.6c-1.7,0.4-3.1,1-4.3,1.9c-1.2,0.8-2.2,1.9-2.9,3.3
		c-0.7,1.3-1.1,2.9-1.1,4.7c0,1.5,0.2,2.7,0.7,3.6c0.5,0.9,1.3,1.7,2.3,2.3c1.1,0.7,2.5,1.2,4.1,1.7c1.7,0.5,3.7,1,6,1.6
		c3.2,0.8,6,1.5,8.5,2.2c2.5,0.7,4.5,1.6,6.2,2.6c1.7,1,2.9,2.3,3.8,3.7c0.9,1.4,1.3,3.2,1.3,5.5c0,4.5-1.8,8.2-5.3,10.9
		C904,155.2,899.2,156.6,893.3,156.6z"/>
</g>
<g>
	<path d="M273.9,197.3l12.2-28.7h1.7l12.2,28.7h-2.2l-4-9.4H280l-4,9.4H273.9z M286.9,171.1l-6.4,15h12.6L286.9,171.1z"/>
	<path d="M303.8,167.8h2.1v25.3c0,0.8,0.2,1.4,0.7,1.9c0.4,0.5,1.1,0.7,1.8,0.7c0.3,0,0.7,0,1.1-0.1c0.4-0.1,0.8-0.2,1.2-0.3
		l0.4,1.6c-0.5,0.2-1,0.3-1.7,0.5c-0.7,0.1-1.3,0.2-1.7,0.2c-1.1,0-2-0.3-2.7-1c-0.7-0.7-1-1.6-1-2.8V167.8z"/>
	<path d="M313.9,167.8h2.1v25.3c0,0.8,0.2,1.4,0.7,1.9c0.4,0.5,1.1,0.7,1.8,0.7c0.3,0,0.7,0,1.1-0.1c0.4-0.1,0.8-0.2,1.2-0.3
		l0.4,1.6c-0.5,0.2-1,0.3-1.7,0.5c-0.7,0.1-1.3,0.2-1.7,0.2c-1.1,0-2-0.3-2.7-1c-0.7-0.7-1-1.6-1-2.8V167.8z"/>
	<path d="M343.1,178.1c-1.9,0.1-3.6,0.6-5,1.7c-1.4,1.1-2.4,2.5-2.9,4.4v13.1h-2v-21h1.9v5.2c0.7-1.5,1.7-2.7,2.9-3.6
		c1.2-0.9,2.5-1.5,3.9-1.6c0.3,0,0.5,0,0.7,0c0.2,0,0.4,0,0.6,0V178.1z"/>
	<path d="M354.7,197.7c-1.5,0-2.8-0.3-4.1-0.9c-1.3-0.6-2.3-1.4-3.3-2.4c-0.9-1-1.6-2.2-2.1-3.5c-0.5-1.3-0.8-2.7-0.8-4.2
		c0-1.5,0.3-2.9,0.8-4.2c0.5-1.3,1.3-2.5,2.2-3.5c0.9-1,2-1.8,3.3-2.4c1.2-0.6,2.6-0.9,4-0.9s2.8,0.3,4.1,0.9
		c1.3,0.6,2.3,1.4,3.3,2.4c0.9,1,1.7,2.2,2.2,3.5c0.5,1.3,0.8,2.7,0.8,4.2c0,1.5-0.3,2.8-0.8,4.2c-0.5,1.3-1.2,2.5-2.2,3.5
		c-0.9,1-2,1.8-3.3,2.4C357.5,197.4,356.2,197.7,354.7,197.7z M346.5,186.9c0,1.2,0.2,2.4,0.6,3.5c0.4,1.1,1,2,1.8,2.8
		c0.7,0.8,1.6,1.4,2.6,1.9c1,0.5,2.1,0.7,3.2,0.7s2.2-0.2,3.2-0.7c1-0.5,1.9-1.1,2.6-2c0.7-0.8,1.3-1.8,1.8-2.9
		c0.4-1.1,0.7-2.3,0.7-3.5c0-1.2-0.2-2.4-0.7-3.5c-0.4-1.1-1-2-1.8-2.9c-0.7-0.8-1.6-1.5-2.6-2c-1-0.5-2.1-0.7-3.2-0.7
		c-1.1,0-2.2,0.2-3.1,0.7c-1,0.5-1.9,1.1-2.6,2c-0.8,0.8-1.3,1.8-1.8,2.9C346.7,184.5,346.5,185.6,346.5,186.9z"/>
	<path d="M376.3,197.7c-4.5,0-6.7-3.1-6.7-9.3v-12.1h2v11.8c0,5.2,1.8,7.8,5.3,7.8c0.9,0,1.8-0.2,2.6-0.5s1.6-0.7,2.4-1.3
		c0.7-0.6,1.4-1.2,1.9-2c0.6-0.8,1-1.6,1.3-2.6v-13.2h2v18.2c0,0.7,0.3,1,0.8,1v1.8c-0.2,0-0.3,0-0.4,0c-0.1,0-0.2,0-0.3,0
		c-0.6,0-1-0.2-1.4-0.5s-0.5-0.8-0.5-1.3v-3.2c-0.9,1.7-2.2,3-3.8,4C379.8,197.2,378.1,197.7,376.3,197.7z"/>
	<path d="M410.6,197.3h-2v-11.7c0-2.7-0.4-4.7-1.2-5.9c-0.8-1.2-2-1.9-3.7-1.9c-0.9,0-1.8,0.2-2.6,0.5c-0.9,0.3-1.7,0.8-2.4,1.4
		c-0.7,0.6-1.4,1.3-2,2.1c-0.6,0.8-1,1.6-1.3,2.6v13h-2v-21h1.9v5c0.4-0.8,1-1.5,1.6-2.2c0.6-0.7,1.4-1.2,2.1-1.7
		c0.8-0.5,1.6-0.8,2.5-1.1c0.9-0.3,1.8-0.4,2.8-0.4c2.3,0,3.9,0.8,4.8,2.4c0.9,1.6,1.4,3.9,1.4,6.9V197.3z"/>
	<path d="M425.3,197.7c-1.5,0-2.8-0.3-4-0.9c-1.2-0.6-2.3-1.4-3.2-2.4c-0.9-1-1.6-2.2-2.1-3.5c-0.5-1.3-0.7-2.7-0.7-4.1
		c0-1.5,0.2-2.8,0.7-4.2c0.5-1.3,1.2-2.5,2-3.5c0.9-1,1.9-1.8,3-2.4c1.2-0.6,2.5-0.9,3.9-0.9c0.9,0,1.8,0.1,2.6,0.4
		c0.8,0.3,1.6,0.6,2.3,1.1c0.7,0.4,1.3,1,1.9,1.6c0.6,0.6,1,1.2,1.5,1.9v-13h2v26.6c0,0.7,0.3,1,0.8,1v1.8c-0.1,0-0.3,0-0.4,0
		s-0.2,0-0.3,0c-0.6,0-1.1-0.2-1.4-0.6c-0.4-0.4-0.5-0.8-0.5-1.3v-2.4c-0.9,1.4-2,2.5-3.5,3.4C428.3,197.2,426.8,197.7,425.3,197.7z
		 M425.6,195.8c0.7,0,1.5-0.1,2.3-0.4c0.8-0.3,1.6-0.7,2.3-1.2c0.7-0.5,1.3-1.1,1.8-1.8s0.8-1.4,0.9-2.2v-6.9
		c-0.3-0.8-0.7-1.5-1.3-2.2c-0.6-0.7-1.2-1.3-1.9-1.8c-0.7-0.5-1.5-0.9-2.3-1.2s-1.6-0.4-2.3-0.4c-1.2,0-2.3,0.3-3.3,0.8
		c-1,0.5-1.8,1.2-2.5,2.1c-0.7,0.8-1.3,1.8-1.6,2.9c-0.4,1.1-0.6,2.2-0.6,3.4c0,1.2,0.2,2.4,0.6,3.4c0.4,1.1,1,2,1.8,2.9
		c0.8,0.8,1.7,1.5,2.7,2C423.4,195.6,424.4,195.8,425.6,195.8z"/>
	<path d="M461.4,196.2c-0.1,0.1-0.3,0.2-0.5,0.3c-0.3,0.1-0.6,0.3-1,0.4s-0.8,0.3-1.3,0.4s-1,0.2-1.6,0.2c-0.6,0-1.1-0.1-1.6-0.2
		s-0.9-0.4-1.3-0.7c-0.4-0.3-0.7-0.7-0.9-1.2c-0.2-0.5-0.3-1-0.3-1.6v-15.8h-2.9v-1.7h2.9v-7.2h2v7.2h4.9v1.7h-4.9v15.3
		c0,0.8,0.3,1.4,0.8,1.8c0.5,0.4,1.2,0.6,1.9,0.6c0.8,0,1.6-0.1,2.2-0.4c0.6-0.3,1-0.5,1.1-0.5L461.4,196.2z"/>
	<path d="M473.8,197.7c-1.5,0-2.9-0.3-4.1-0.9c-1.3-0.6-2.4-1.4-3.3-2.4c-0.9-1-1.7-2.2-2.2-3.5c-0.5-1.3-0.8-2.7-0.8-4.2
		c0-1.5,0.3-2.9,0.8-4.2c0.5-1.3,1.2-2.4,2.2-3.4s2-1.8,3.3-2.3c1.3-0.6,2.6-0.8,4.1-0.8c1.5,0,2.8,0.3,4.1,0.9
		c1.3,0.6,2.3,1.4,3.3,2.3c0.9,1,1.6,2.1,2.2,3.4c0.5,1.3,0.8,2.7,0.8,4.1c0,0.1,0,0.3,0,0.5c0,0.2,0,0.3,0,0.4h-18.5
		c0.1,1.2,0.4,2.3,0.8,3.4c0.5,1,1.1,1.9,1.8,2.7c0.7,0.8,1.6,1.3,2.6,1.8c1,0.4,2,0.6,3.1,0.6c0.7,0,1.4-0.1,2.2-0.3
		c0.7-0.2,1.4-0.5,2-0.8c0.6-0.3,1.1-0.8,1.6-1.3c0.5-0.5,0.8-1,1.1-1.6l1.8,0.5c-0.3,0.8-0.8,1.4-1.4,2.1c-0.6,0.6-1.3,1.2-2,1.6
		c-0.8,0.5-1.6,0.8-2.5,1.1C475.7,197.5,474.8,197.7,473.8,197.7z M482,185.9c-0.1-1.2-0.4-2.4-0.8-3.4c-0.5-1-1.1-1.9-1.8-2.6
		c-0.7-0.7-1.6-1.3-2.6-1.7c-1-0.4-2-0.6-3.1-0.6c-1.1,0-2.1,0.2-3.1,0.6c-1,0.4-1.8,1-2.6,1.7c-0.7,0.7-1.3,1.6-1.8,2.7
		s-0.7,2.2-0.8,3.4H482z"/>
	<path d="M487,186.7c0-1.5,0.3-2.9,0.8-4.2c0.5-1.3,1.2-2.5,2.2-3.4c0.9-1,2-1.7,3.3-2.3c1.3-0.6,2.7-0.8,4.2-0.8
		c1.9,0,3.6,0.4,5,1.3c1.4,0.9,2.5,2.1,3.3,3.6l-2,0.6c-0.6-1.2-1.5-2.1-2.7-2.7c-1.2-0.7-2.4-1-3.8-1c-1.2,0-2.2,0.2-3.2,0.7
		c-1,0.5-1.9,1.1-2.6,1.9s-1.3,1.8-1.7,2.8c-0.4,1.1-0.6,2.3-0.6,3.5c0,1.3,0.2,2.5,0.7,3.6c0.4,1.1,1,2.1,1.8,2.9s1.6,1.5,2.6,2
		c1,0.5,2.1,0.7,3.2,0.7c0.7,0,1.4-0.1,2.2-0.3c0.7-0.2,1.4-0.5,2-0.8c0.6-0.3,1.1-0.8,1.6-1.2c0.4-0.5,0.7-1,0.9-1.5l2,0.6
		c-0.3,0.7-0.7,1.4-1.2,2s-1.2,1.2-2,1.6c-0.8,0.5-1.6,0.8-2.5,1.1c-0.9,0.3-1.8,0.4-2.8,0.4c-1.5,0-2.9-0.3-4.1-0.9
		c-1.3-0.6-2.4-1.4-3.3-2.4c-0.9-1-1.7-2.2-2.2-3.5C487.3,189.6,487,188.2,487,186.7z"/>
	<path d="M527.6,197.3h-2v-11.7c0-2.6-0.4-4.6-1.3-5.9c-0.9-1.3-2.2-1.9-3.9-1.9c-0.9,0-1.7,0.2-2.5,0.5c-0.8,0.3-1.6,0.8-2.3,1.4
		c-0.7,0.6-1.3,1.3-1.9,2.1c-0.5,0.8-0.9,1.6-1.2,2.6v13h-2v-29.5h2v13.5c0.9-1.6,2.1-2.9,3.6-3.9s3.2-1.5,4.9-1.5
		c1.2,0,2.2,0.2,3,0.6c0.8,0.4,1.5,1,2.1,1.9s1,1.8,1.2,2.9c0.3,1.1,0.4,2.4,0.4,3.9V197.3z"/>
	<path d="M552.7,197.6c-1.5,0-2.8-0.3-4-0.9c-1.2-0.6-2.3-1.4-3.1-2.4c-0.9-1-1.6-2.2-2.1-3.5s-0.7-2.6-0.7-4c0-1.4,0.2-2.8,0.7-4.1
		c0.5-1.3,1.1-2.5,2-3.5c0.9-1,1.9-1.8,3.1-2.4c1.2-0.6,2.5-0.9,3.9-0.9c1.8,0,3.4,0.5,4.8,1.4c1.4,1,2.5,2.1,3.5,3.5v-4.6h1.8v21.4
		c0,1.4-0.3,2.7-0.8,3.8s-1.3,2-2.2,2.7c-0.9,0.7-2,1.3-3.1,1.6c-1.2,0.4-2.5,0.5-3.8,0.5c-1.2,0-2.3-0.1-3.3-0.3
		c-1-0.2-1.8-0.6-2.6-1c-0.7-0.4-1.4-0.9-2-1.5s-1.1-1.3-1.5-2l1.4-0.9c0.8,1.4,2,2.5,3.4,3.1c1.4,0.7,2.9,1,4.6,1
		c1.1,0,2.1-0.1,3-0.4c1-0.3,1.8-0.7,2.5-1.3c0.7-0.6,1.3-1.3,1.7-2.2s0.6-1.9,0.6-3v-4.6c-0.9,1.3-2,2.4-3.4,3.3
		C555.7,197.2,554.2,197.6,552.7,197.6z M553.2,195.8c0.9,0,1.8-0.2,2.6-0.5c0.8-0.3,1.6-0.8,2.3-1.3s1.3-1.1,1.7-1.8
		c0.5-0.7,0.7-1.3,0.8-2v-6.9c-0.3-0.8-0.8-1.6-1.3-2.2c-0.5-0.7-1.2-1.3-1.8-1.8c-0.7-0.5-1.4-0.9-2.2-1.2
		c-0.8-0.3-1.6-0.4-2.4-0.4c-1.3,0-2.4,0.3-3.4,0.8c-1,0.5-1.8,1.2-2.5,2.1c-0.7,0.9-1.2,1.8-1.6,2.9s-0.5,2.2-0.5,3.3
		c0,1.2,0.2,2.4,0.6,3.4s1,2,1.8,2.9c0.8,0.8,1.7,1.5,2.7,2C550.9,195.6,552,195.8,553.2,195.8z"/>
	<path d="M575.3,197.7c-4.5,0-6.7-3.1-6.7-9.3v-12.1h2v11.8c0,5.2,1.8,7.8,5.3,7.8c0.9,0,1.8-0.2,2.6-0.5s1.6-0.7,2.4-1.3
		c0.7-0.6,1.4-1.2,1.9-2c0.6-0.8,1-1.6,1.3-2.6v-13.2h2v18.2c0,0.7,0.3,1,0.8,1v1.8c-0.2,0-0.3,0-0.4,0c-0.1,0-0.2,0-0.3,0
		c-0.6,0-1-0.2-1.4-0.5s-0.5-0.8-0.5-1.3v-3.2c-0.9,1.7-2.2,3-3.8,4C578.9,197.2,577.2,197.7,575.3,197.7z"/>
	<path d="M593.9,204.4c0.2,0,0.6,0,1.1,0s0.8-0.1,1.1-0.2c0.1-0.1,0.2-0.2,0.4-0.4c0.1-0.2,0.3-0.5,0.6-1s0.6-1.2,0.9-2
		s0.8-2,1.4-3.4l-9.4-21h2.1l8.3,19l7.8-19h2l-11.5,27.6c-0.4,1-0.9,1.6-1.6,1.9c-0.7,0.3-1.5,0.5-2.4,0.5c-0.1,0-0.3,0-0.4,0
		s-0.3,0-0.4,0V204.4z"/>
	<path d="M629,197.7c-1,0-1.9-0.2-2.7-0.5c-0.8-0.3-1.6-0.8-2.2-1.4c-0.6-0.6-1.1-1.3-1.5-2.1c-0.3-0.8-0.5-1.6-0.5-2.6
		c0-0.9,0.2-1.7,0.6-2.5c0.4-0.8,1-1.4,1.8-2c0.8-0.6,1.7-1,2.8-1.3c1.1-0.3,2.2-0.5,3.5-0.5c1.1,0,2.3,0.1,3.4,0.3
		c1.2,0.2,2.2,0.5,3.1,0.8V184c0-2-0.6-3.6-1.7-4.7c-1.1-1.2-2.7-1.8-4.6-1.8c-1,0-2.1,0.2-3.3,0.6c-1.1,0.4-2.3,1-3.5,1.9l-0.8-1.4
		c2.7-1.8,5.3-2.7,7.7-2.7c2.5,0,4.5,0.7,6,2.2c1.5,1.5,2.2,3.5,2.2,6.1v10.3c0,0.7,0.3,1,0.8,1v1.8c-0.1,0-0.3,0-0.4,0
		s-0.2,0-0.3,0c-0.5,0-0.9-0.2-1.3-0.5c-0.4-0.3-0.6-0.8-0.6-1.3v-1.7c-1,1.3-2.2,2.2-3.7,2.9C632.4,197.3,630.7,197.7,629,197.7z
		 M629.4,196c1.6,0,3-0.3,4.3-0.9c1.3-0.6,2.3-1.4,2.9-2.4c0.5-0.5,0.7-1.1,0.7-1.6v-3.7c-2-0.8-4.1-1.1-6.3-1.1
		c-2.1,0-3.8,0.4-5.1,1.3c-1.3,0.9-1.9,2-1.9,3.4c0,0.7,0.1,1.4,0.4,2c0.3,0.6,0.6,1.2,1.1,1.6c0.5,0.4,1.1,0.8,1.7,1
		C627.9,195.9,628.6,196,629.4,196z"/>
	<path d="M662.7,197.3h-2v-11.7c0-2.7-0.4-4.7-1.2-5.9c-0.8-1.2-2-1.9-3.7-1.9c-0.9,0-1.8,0.2-2.6,0.5c-0.9,0.3-1.7,0.8-2.4,1.4
		c-0.7,0.6-1.4,1.3-2,2.1c-0.6,0.8-1,1.6-1.3,2.6v13h-2v-21h1.9v5c0.4-0.8,1-1.5,1.6-2.2c0.6-0.7,1.4-1.2,2.1-1.7
		c0.8-0.5,1.6-0.8,2.5-1.1c0.9-0.3,1.8-0.4,2.8-0.4c2.3,0,3.9,0.8,4.8,2.4s1.4,3.9,1.4,6.9V197.3z"/>
	<path d="M677.4,197.7c-1.5,0-2.8-0.3-4-0.9c-1.2-0.6-2.3-1.4-3.2-2.4c-0.9-1-1.6-2.2-2.1-3.5c-0.5-1.3-0.7-2.7-0.7-4.1
		c0-1.5,0.2-2.8,0.7-4.2c0.5-1.3,1.2-2.5,2-3.5c0.9-1,1.9-1.8,3-2.4c1.2-0.6,2.5-0.9,3.9-0.9c0.9,0,1.8,0.1,2.6,0.4
		c0.8,0.3,1.6,0.6,2.3,1.1c0.7,0.4,1.3,1,1.9,1.6c0.6,0.6,1,1.2,1.5,1.9v-13h2v26.6c0,0.7,0.3,1,0.8,1v1.8c-0.1,0-0.3,0-0.4,0
		s-0.2,0-0.3,0c-0.6,0-1.1-0.2-1.4-0.6s-0.5-0.8-0.5-1.3v-2.4c-0.9,1.4-2,2.5-3.5,3.4C680.4,197.2,678.9,197.7,677.4,197.7z
		 M677.7,195.8c0.7,0,1.5-0.1,2.3-0.4c0.8-0.3,1.6-0.7,2.3-1.2c0.7-0.5,1.3-1.1,1.8-1.8s0.8-1.4,0.9-2.2v-6.9
		c-0.3-0.8-0.7-1.5-1.3-2.2c-0.6-0.7-1.2-1.3-1.9-1.8c-0.7-0.5-1.5-0.9-2.3-1.2s-1.6-0.4-2.3-0.4c-1.2,0-2.3,0.3-3.3,0.8
		c-1,0.5-1.8,1.2-2.5,2.1c-0.7,0.8-1.3,1.8-1.6,2.9c-0.4,1.1-0.6,2.2-0.6,3.4c0,1.2,0.2,2.4,0.6,3.4s1,2,1.8,2.9
		c0.8,0.8,1.7,1.5,2.7,2C675.4,195.6,676.5,195.8,677.7,195.8z"/>
	<path d="M729.6,176.3h2l-9.1,21h-1.7l-4.7-11.1l-4.7,11.1h-1.7l-9-21h2l8,18.8l4.4-10.3l-3.6-8.4h1.8l2.9,6.9l2.9-6.9h1.8l-3.6,8.4
		l4.4,10.3L729.6,176.3z"/>
	<path d="M744.5,197.7c-1.5,0-2.9-0.3-4.1-0.9c-1.3-0.6-2.4-1.4-3.3-2.4c-0.9-1-1.7-2.2-2.2-3.5c-0.5-1.3-0.8-2.7-0.8-4.2
		c0-1.5,0.3-2.9,0.8-4.2c0.5-1.3,1.2-2.4,2.2-3.4s2-1.8,3.3-2.3c1.3-0.6,2.6-0.8,4.1-0.8c1.5,0,2.8,0.3,4.1,0.9
		c1.3,0.6,2.3,1.4,3.3,2.3c0.9,1,1.6,2.1,2.2,3.4c0.5,1.3,0.8,2.7,0.8,4.1c0,0.1,0,0.3,0,0.5c0,0.2,0,0.3,0,0.4h-18.5
		c0.1,1.2,0.4,2.3,0.8,3.4c0.5,1,1.1,1.9,1.8,2.7c0.7,0.8,1.6,1.3,2.6,1.8c1,0.4,2,0.6,3.1,0.6c0.7,0,1.4-0.1,2.2-0.3
		c0.7-0.2,1.4-0.5,2-0.8c0.6-0.3,1.1-0.8,1.6-1.3c0.5-0.5,0.8-1,1.1-1.6l1.8,0.5c-0.3,0.8-0.8,1.4-1.4,2.1c-0.6,0.6-1.3,1.2-2,1.6
		c-0.8,0.5-1.6,0.8-2.5,1.1C746.4,197.5,745.5,197.7,744.5,197.7z M752.7,185.9c-0.1-1.2-0.4-2.4-0.8-3.4c-0.5-1-1.1-1.9-1.8-2.6
		c-0.7-0.7-1.6-1.3-2.6-1.7c-1-0.4-2-0.6-3.1-0.6c-1.1,0-2.1,0.2-3.1,0.6c-1,0.4-1.8,1-2.6,1.7c-0.7,0.7-1.3,1.6-1.8,2.7
		s-0.7,2.2-0.8,3.4H752.7z"/>
	<path d="M768.9,197.7c-1.7,0-3.2-0.4-4.6-1.3c-1.4-0.9-2.5-2-3.4-3.3v4.2h-1.8v-29.5h2v13c1-1.5,2.2-2.6,3.5-3.6
		c1.3-0.9,2.9-1.4,4.7-1.4c1.5,0,2.8,0.3,4,0.9c1.2,0.6,2.2,1.5,3,2.5c0.8,1,1.5,2.2,1.9,3.5c0.4,1.3,0.7,2.6,0.7,4
		c0,1.5-0.3,2.8-0.8,4.1c-0.5,1.3-1.2,2.5-2.1,3.4c-0.9,1-2,1.8-3.2,2.4C771.6,197.4,770.3,197.7,768.9,197.7z M768.5,195.8
		c1.2,0,2.3-0.3,3.4-0.8c1-0.5,1.9-1.2,2.6-2c0.7-0.8,1.3-1.8,1.7-2.9s0.6-2.2,0.6-3.3c0-1.2-0.2-2.3-0.6-3.4
		c-0.4-1.1-0.9-2.1-1.6-2.9c-0.7-0.8-1.5-1.5-2.5-2c-1-0.5-2.1-0.8-3.3-0.8c-0.9,0-1.7,0.2-2.5,0.5c-0.8,0.3-1.5,0.7-2.2,1.2
		c-0.7,0.5-1.2,1.1-1.8,1.8c-0.5,0.7-0.9,1.4-1.3,2.1v6.9c0.1,0.8,0.4,1.5,0.9,2.2c0.5,0.7,1.1,1.3,1.8,1.8c0.7,0.5,1.5,0.9,2.3,1.2
		C767,195.7,767.8,195.8,768.5,195.8z"/>
	<path d="M803,197.7c-1.5,0-2.8-0.3-4-0.9c-1.2-0.6-2.3-1.4-3.2-2.4c-0.9-1-1.6-2.2-2.1-3.5c-0.5-1.3-0.7-2.7-0.7-4.1
		c0-1.5,0.2-2.8,0.7-4.2c0.5-1.3,1.2-2.5,2-3.5c0.9-1,1.9-1.8,3-2.4c1.2-0.6,2.5-0.9,3.9-0.9c0.9,0,1.8,0.1,2.6,0.4
		c0.8,0.3,1.6,0.6,2.3,1.1c0.7,0.4,1.3,1,1.9,1.6c0.6,0.6,1,1.2,1.5,1.9v-13h2v26.6c0,0.7,0.3,1,0.8,1v1.8c-0.1,0-0.3,0-0.4,0
		s-0.2,0-0.3,0c-0.6,0-1.1-0.2-1.4-0.6s-0.5-0.8-0.5-1.3v-2.4c-0.9,1.4-2,2.5-3.5,3.4C806.1,197.2,804.6,197.7,803,197.7z
		 M803.4,195.8c0.7,0,1.5-0.1,2.3-0.4c0.8-0.3,1.6-0.7,2.3-1.2c0.7-0.5,1.3-1.1,1.8-1.8s0.8-1.4,0.9-2.2v-6.9
		c-0.3-0.8-0.7-1.5-1.3-2.2c-0.6-0.7-1.2-1.3-1.9-1.8c-0.7-0.5-1.5-0.9-2.3-1.2s-1.6-0.4-2.3-0.4c-1.2,0-2.3,0.3-3.3,0.8
		c-1,0.5-1.8,1.2-2.5,2.1c-0.7,0.8-1.3,1.8-1.6,2.9c-0.4,1.1-0.6,2.2-0.6,3.4c0,1.2,0.2,2.4,0.6,3.4s1,2,1.8,2.9
		c0.8,0.8,1.7,1.5,2.7,2C801.1,195.6,802.2,195.8,803.4,195.8z"/>
	<path d="M828.2,197.7c-1.5,0-2.9-0.3-4.1-0.9c-1.3-0.6-2.4-1.4-3.3-2.4c-0.9-1-1.7-2.2-2.2-3.5c-0.5-1.3-0.8-2.7-0.8-4.2
		c0-1.5,0.3-2.9,0.8-4.2c0.5-1.3,1.2-2.4,2.2-3.4s2-1.8,3.3-2.3c1.3-0.6,2.6-0.8,4.1-0.8c1.5,0,2.8,0.3,4.1,0.9
		c1.3,0.6,2.3,1.4,3.3,2.3c0.9,1,1.6,2.1,2.2,3.4c0.5,1.3,0.8,2.7,0.8,4.1c0,0.1,0,0.3,0,0.5c0,0.2,0,0.3,0,0.4h-18.5
		c0.1,1.2,0.4,2.3,0.8,3.4c0.5,1,1.1,1.9,1.8,2.7c0.7,0.8,1.6,1.3,2.6,1.8c1,0.4,2,0.6,3.1,0.6c0.7,0,1.4-0.1,2.2-0.3
		c0.7-0.2,1.4-0.5,2-0.8c0.6-0.3,1.1-0.8,1.6-1.3c0.5-0.5,0.8-1,1.1-1.6l1.8,0.5c-0.3,0.8-0.8,1.4-1.4,2.1c-0.6,0.6-1.3,1.2-2,1.6
		c-0.8,0.5-1.6,0.8-2.5,1.1C830.1,197.5,829.1,197.7,828.2,197.7z M836.4,185.9c-0.1-1.2-0.4-2.4-0.8-3.4c-0.5-1-1.1-1.9-1.8-2.6
		c-0.7-0.7-1.6-1.3-2.6-1.7c-1-0.4-2-0.6-3.1-0.6c-1.1,0-2.1,0.2-3.1,0.6c-1,0.4-1.8,1-2.6,1.7c-0.7,0.7-1.3,1.6-1.8,2.7
		s-0.7,2.2-0.8,3.4H836.4z"/>
	<path d="M849.5,197.7c-1.6,0-3.2-0.3-4.6-0.8c-1.5-0.5-2.8-1.3-3.9-2.4l1-1.4c1.1,1,2.3,1.8,3.5,2.3c1.2,0.5,2.5,0.7,4,0.7
		c1.8,0,3.3-0.4,4.4-1.2c1.1-0.8,1.7-1.8,1.7-3.2c0-0.6-0.1-1.2-0.4-1.6c-0.3-0.4-0.7-0.8-1.3-1.1s-1.3-0.6-2.1-0.8
		c-0.8-0.2-1.8-0.5-2.9-0.8c-1.2-0.3-2.2-0.5-3.1-0.8c-0.9-0.3-1.6-0.6-2.2-1c-0.6-0.4-1-0.8-1.3-1.4c-0.3-0.5-0.4-1.2-0.4-2.1
		c0-1,0.2-2,0.6-2.7c0.4-0.8,1-1.4,1.7-1.9c0.7-0.5,1.5-0.9,2.5-1.2c0.9-0.3,1.9-0.4,3-0.4c1.6,0,3.1,0.3,4.4,0.8
		c1.3,0.6,2.2,1.3,2.9,2.1l-1.1,1.1c-0.7-0.8-1.6-1.4-2.7-1.8c-1.1-0.4-2.3-0.6-3.6-0.6c-0.8,0-1.5,0.1-2.2,0.2
		c-0.7,0.2-1.3,0.4-1.8,0.8c-0.5,0.3-0.9,0.8-1.2,1.4s-0.4,1.2-0.4,2c0,0.6,0.1,1.1,0.3,1.5c0.2,0.4,0.5,0.7,1,1
		c0.4,0.3,1,0.5,1.7,0.7c0.7,0.2,1.5,0.4,2.5,0.7c1.3,0.3,2.5,0.6,3.5,0.9c1,0.3,1.9,0.7,2.6,1.1c0.7,0.4,1.2,0.9,1.6,1.5
		s0.5,1.3,0.5,2.3c0,1.9-0.7,3.4-2.2,4.5C853.9,197.1,851.9,197.7,849.5,197.7z"/>
	<path d="M862.2,171.5v-3.7h2v3.7H862.2z M862.2,197.3v-21h2v21H862.2z"/>
	<path d="M879,197.6c-1.5,0-2.8-0.3-4-0.9c-1.2-0.6-2.3-1.4-3.1-2.4c-0.9-1-1.6-2.2-2.1-3.5s-0.7-2.6-0.7-4c0-1.4,0.2-2.8,0.7-4.1
		c0.5-1.3,1.1-2.5,2-3.5c0.9-1,1.9-1.8,3.1-2.4c1.2-0.6,2.5-0.9,3.9-0.9c1.8,0,3.4,0.5,4.8,1.4c1.4,1,2.5,2.1,3.5,3.5v-4.6h1.8v21.4
		c0,1.4-0.3,2.7-0.8,3.8s-1.3,2-2.2,2.7c-0.9,0.7-2,1.3-3.1,1.6c-1.2,0.4-2.5,0.5-3.8,0.5c-1.2,0-2.3-0.1-3.3-0.3
		c-1-0.2-1.8-0.6-2.6-1c-0.7-0.4-1.4-0.9-2-1.5s-1.1-1.3-1.5-2l1.4-0.9c0.8,1.4,2,2.5,3.4,3.1c1.4,0.7,2.9,1,4.6,1
		c1.1,0,2.1-0.1,3-0.4c1-0.3,1.8-0.7,2.5-1.3c0.7-0.6,1.3-1.3,1.7-2.2s0.6-1.9,0.6-3v-4.6c-0.9,1.3-2,2.4-3.4,3.3
		C882,197.2,880.5,197.6,879,197.6z M879.5,195.8c0.9,0,1.8-0.2,2.6-0.5c0.8-0.3,1.6-0.8,2.3-1.3s1.3-1.1,1.7-1.8
		c0.5-0.7,0.7-1.3,0.8-2v-6.9c-0.3-0.8-0.8-1.6-1.3-2.2c-0.5-0.7-1.2-1.3-1.8-1.8c-0.7-0.5-1.4-0.9-2.2-1.2
		c-0.8-0.3-1.6-0.4-2.4-0.4c-1.3,0-2.4,0.3-3.4,0.8c-1,0.5-1.8,1.2-2.5,2.1c-0.7,0.9-1.2,1.8-1.6,2.9s-0.5,2.2-0.5,3.3
		c0,1.2,0.2,2.4,0.6,3.4s1,2,1.8,2.9c0.8,0.8,1.7,1.5,2.7,2C877.2,195.6,878.3,195.8,879.5,195.8z"/>
	<path d="M912.3,197.3h-2v-11.7c0-2.7-0.4-4.7-1.2-5.9c-0.8-1.2-2-1.9-3.7-1.9c-0.9,0-1.8,0.2-2.6,0.5c-0.9,0.3-1.7,0.8-2.4,1.4
		c-0.7,0.6-1.4,1.3-2,2.1c-0.6,0.8-1,1.6-1.3,2.6v13h-2v-21h1.9v5c0.4-0.8,1-1.5,1.6-2.2c0.6-0.7,1.4-1.2,2.1-1.7
		c0.8-0.5,1.6-0.8,2.5-1.1c0.9-0.3,1.8-0.4,2.8-0.4c2.3,0,3.9,0.8,4.8,2.4s1.4,3.9,1.4,6.9V197.3z"/>
	<path d="M927.2,197.7c-1.5,0-2.9-0.3-4.1-0.9c-1.3-0.6-2.4-1.4-3.3-2.4c-0.9-1-1.7-2.2-2.2-3.5c-0.5-1.3-0.8-2.7-0.8-4.2
		c0-1.5,0.3-2.9,0.8-4.2c0.5-1.3,1.2-2.4,2.2-3.4s2-1.8,3.3-2.3c1.3-0.6,2.6-0.8,4.1-0.8c1.5,0,2.8,0.3,4.1,0.9
		c1.3,0.6,2.3,1.4,3.3,2.3c0.9,1,1.6,2.1,2.2,3.4c0.5,1.3,0.8,2.7,0.8,4.1c0,0.1,0,0.3,0,0.5c0,0.2,0,0.3,0,0.4h-18.5
		c0.1,1.2,0.4,2.3,0.8,3.4c0.5,1,1.1,1.9,1.8,2.7c0.7,0.8,1.6,1.3,2.6,1.8c1,0.4,2,0.6,3.1,0.6c0.7,0,1.4-0.1,2.2-0.3
		c0.7-0.2,1.4-0.5,2-0.8c0.6-0.3,1.1-0.8,1.6-1.3c0.5-0.5,0.8-1,1.1-1.6l1.8,0.5c-0.3,0.8-0.8,1.4-1.4,2.1c-0.6,0.6-1.3,1.2-2,1.6
		c-0.8,0.5-1.6,0.8-2.5,1.1C929.1,197.5,928.2,197.7,927.2,197.7z M935.4,185.9c-0.1-1.2-0.4-2.4-0.8-3.4c-0.5-1-1.1-1.9-1.8-2.6
		c-0.7-0.7-1.6-1.3-2.6-1.7c-1-0.4-2-0.6-3.1-0.6c-1.1,0-2.1,0.2-3.1,0.6c-1,0.4-1.8,1-2.6,1.7c-0.7,0.7-1.3,1.6-1.8,2.7
		s-0.7,2.2-0.8,3.4H935.4z"/>
	<path d="M951.7,178.1c-1.9,0.1-3.6,0.6-5,1.7c-1.4,1.1-2.4,2.5-2.9,4.4v13.1h-2v-21h1.9v5.2c0.7-1.5,1.7-2.7,2.9-3.6
		c1.2-0.9,2.5-1.5,3.9-1.6c0.3,0,0.5,0,0.7,0c0.2,0,0.4,0,0.6,0V178.1z"/>
	<path d="M953.3,197.3v-3.4h1.8v3.4H953.3z"/>
</g>
</svg>
