<?xml version="1.0" encoding="utf-8"?>
<!-- Generator: Adobe Illustrator 19.0.1, SVG Export Plug-In . SVG Version: 6.00 Build 0)  -->
<svg version="1.1" id="Layer_1" xmlns="http://www.w3.org/2000/svg" xmlns:xlink="http://www.w3.org/1999/xlink" x="0px" y="0px"
	 viewBox="0 0 850.4 850.4" style="enable-background:new 0 0 850.4 850.4;" xml:space="preserve">
<style type="text/css">
	.st0{fill:#30A0DA;stroke:#0081BC;stroke-miterlimit:10;}
	.st1{fill:#FFFFFF;}
</style>
<circle class="st0" cx="425.8" cy="326.8" r="314.2"/>
<g>
	<path class="st1" d="M244.3,459.7h-57.6V172h115.2c10.6,0,20.7,1.4,30.5,4.1c9.8,2.7,18.9,6.6,27.4,11.6c8.5,5,16.3,11,23.3,18.1
		s13,14.8,18.1,23.4c5,8.6,8.9,17.7,11.6,27.5c2.7,9.8,4.1,19.9,4.1,30.5c0,15.8-3,30.7-9,44.6c-6,14-14.2,26.2-24.7,36.6
		c-10.4,10.4-22.6,18.7-36.6,24.7c-14,6-28.9,9-44.6,9h-57.6V459.7z M244.3,229.6v115.2h57.6c7.9,0,15.3-1.5,22.3-4.5
		c7-3,13-7.1,18.3-12.3c5.2-5.2,9.3-11.3,12.3-18.4s4.5-14.5,4.5-22.4c0-7.9-1.5-15.3-4.5-22.4s-7.1-13.1-12.3-18.4
		c-5.2-5.2-11.3-9.3-18.3-12.3c-7-3-14.4-4.5-22.3-4.5H244.3z"/>
	<path class="st1" d="M508.1,459.7h-57.6V172h115.2c10.6,0,20.7,1.4,30.5,4.1c9.8,2.7,18.9,6.6,27.4,11.6c8.5,5,16.3,11,23.3,18.1
		s13,14.8,18.1,23.4c5,8.6,8.9,17.7,11.6,27.5c2.7,9.8,4.1,19.9,4.1,30.5c0,9.9-1.2,19.5-3.7,28.9c-2.5,9.4-6,18.3-10.6,26.7
		c-4.6,8.4-10.3,16.2-17,23.3c-6.7,7.1-14.2,13.2-22.5,18.5l31.9,75.2h-61.2l-25.1-58l-64.4,0.4V459.7z M508.1,229.6v115.2h57.6
		c7.9,0,15.3-1.5,22.3-4.5c7-3,13-7.1,18.3-12.3c5.2-5.2,9.3-11.3,12.3-18.4c3-7,4.5-14.5,4.5-22.4c0-7.9-1.5-15.3-4.5-22.4
		c-3-7-7.1-13.1-12.3-18.4c-5.2-5.2-11.3-9.3-18.3-12.3c-7-3-14.4-4.5-22.3-4.5H508.1z"/>
</g>
<g>
	<path d="M28.6,753.4v-87.9h36.1c3.7,0,7.1,0.8,10.3,2.4c3.1,1.6,5.8,3.7,8.1,6.3c2.3,2.6,4,5.5,5.3,8.8c1.3,3.3,1.9,6.5,1.9,9.8
		c0,3.5-0.6,7-1.8,10.3c-1.2,3.3-2.9,6.2-5.1,8.8c-2.2,2.6-4.8,4.6-7.8,6.1c-3,1.5-6.4,2.3-10.1,2.3H34.9v33.2H28.6z M34.9,714.4
		h30.3c2.9,0,5.5-0.6,7.8-1.8c2.3-1.2,4.3-2.8,5.9-4.8c1.6-2,2.8-4.3,3.7-6.9c0.9-2.6,1.3-5.3,1.3-8.1c0-2.9-0.5-5.6-1.5-8.2
		c-1-2.6-2.4-4.9-4.2-6.9c-1.8-2-3.8-3.5-6.2-4.7c-2.4-1.2-4.8-1.7-7.5-1.7H34.9V714.4z"/>
	<path d="M131,754.6c-4.5,0-8.7-0.9-12.6-2.7c-3.9-1.8-7.2-4.2-10.1-7.3c-2.8-3.1-5.1-6.7-6.7-10.7c-1.6-4-2.4-8.4-2.4-13
		c0-4.5,0.8-8.8,2.4-12.8c1.6-4,3.8-7.5,6.6-10.5c2.8-3,6.1-5.4,10-7.1c3.9-1.7,8-2.6,12.5-2.6c4.5,0,8.7,0.9,12.6,2.7
		c3.8,1.8,7.2,4.2,10,7.2c2.8,3,5,6.5,6.6,10.5c1.6,4,2.4,8.2,2.4,12.7c0,0.4,0,0.9-0.1,1.5c0,0.6-0.1,1-0.1,1.2h-56.6
		c0.2,3.7,1.1,7.2,2.6,10.3c1.5,3.2,3.4,5.9,5.6,8.2c2.3,2.3,4.9,4.1,7.9,5.4c3,1.3,6.1,2,9.5,2c2.2,0,4.4-0.3,6.6-0.9
		c2.2-0.6,4.2-1.5,6.1-2.5c1.9-1.1,3.5-2.4,5-3.9c1.4-1.5,2.6-3.2,3.4-5l5.4,1.5c-1,2.3-2.4,4.4-4.1,6.4c-1.8,1.9-3.8,3.6-6.2,5
		c-2.4,1.4-4.9,2.5-7.7,3.3C136.8,754.2,133.9,754.6,131,754.6z M156.2,718.7c-0.2-3.8-1.1-7.3-2.5-10.4c-1.4-3.1-3.3-5.8-5.6-8.1
		c-2.3-2.3-4.9-4-7.9-5.3c-3-1.3-6.1-1.9-9.5-1.9c-3.4,0-6.6,0.6-9.5,1.9c-3,1.3-5.6,3.1-7.9,5.3c-2.3,2.3-4.1,5-5.4,8.2
		c-1.4,3.2-2.2,6.6-2.4,10.3H156.2z"/>
	<path d="M204.1,750.3c-0.3,0.2-0.9,0.5-1.7,0.9c-0.8,0.5-1.8,0.9-3,1.3c-1.2,0.4-2.5,0.8-4,1.1c-1.5,0.3-3.1,0.5-4.8,0.5
		s-3.4-0.2-4.9-0.7c-1.5-0.5-2.9-1.2-4-2.2c-1.2-1-2.1-2.2-2.8-3.6c-0.7-1.4-1.1-3.1-1.1-5v-48.5h-9V689h9v-22h6.2v22h15.1v5.1
		h-15.1v47c0,2.4,0.8,4.2,2.5,5.4c1.6,1.2,3.5,1.8,5.7,1.8c2.6,0,4.8-0.4,6.6-1.3c1.9-0.9,3-1.4,3.4-1.7L204.1,750.3z"/>
	<path d="M242,754.6c-4.5,0-8.7-0.9-12.6-2.7c-3.9-1.8-7.2-4.2-10.1-7.3c-2.8-3.1-5.1-6.7-6.7-10.7c-1.6-4-2.4-8.4-2.4-13
		c0-4.5,0.8-8.8,2.4-12.8c1.6-4,3.8-7.5,6.6-10.5c2.8-3,6.1-5.4,10-7.1c3.9-1.7,8-2.6,12.5-2.6c4.5,0,8.7,0.9,12.6,2.7
		c3.8,1.8,7.2,4.2,10,7.2c2.8,3,5,6.5,6.6,10.5c1.6,4,2.4,8.2,2.4,12.7c0,0.4,0,0.9-0.1,1.5c0,0.6-0.1,1-0.1,1.2h-56.6
		c0.2,3.7,1.1,7.2,2.6,10.3c1.5,3.2,3.4,5.9,5.6,8.2c2.3,2.3,4.9,4.1,7.9,5.4c3,1.3,6.1,2,9.5,2c2.2,0,4.4-0.3,6.6-0.9
		c2.2-0.6,4.2-1.5,6.1-2.5c1.9-1.1,3.5-2.4,5-3.9c1.4-1.5,2.6-3.2,3.4-5l5.4,1.5c-1,2.3-2.4,4.4-4.1,6.4c-1.8,1.9-3.8,3.6-6.2,5
		c-2.4,1.4-4.9,2.5-7.7,3.3C247.9,754.2,245,754.6,242,754.6z M267.3,718.7c-0.2-3.8-1.1-7.3-2.5-10.4c-1.4-3.1-3.3-5.8-5.6-8.1
		c-2.3-2.3-4.9-4-7.9-5.3c-3-1.3-6.1-1.9-9.5-1.9c-3.4,0-6.6,0.6-9.5,1.9c-3,1.3-5.6,3.1-7.9,5.3c-2.3,2.3-4.1,5-5.4,8.2
		c-1.4,3.2-2.2,6.6-2.4,10.3H267.3z"/>
	<path d="M317.3,694.6c-5.9,0.2-10.9,1.9-15.2,5.1c-4.3,3.3-7.3,7.7-9,13.4v40.2h-6.2V689h5.8v15.8c2.2-4.5,5.2-8.2,8.9-11.1
		c3.7-2.8,7.6-4.5,11.8-4.9c0.8,0,1.6,0,2.2-0.1c0.7,0,1.2-0.1,1.7-0.1V694.6z"/>
	<path d="M360.7,753.4v-87.9h36.6c3.7,0,7.1,0.8,10.3,2.4c3.1,1.6,5.8,3.7,8,6.3s4,5.5,5.3,8.8c1.3,3.3,1.9,6.5,1.9,9.8
		c0,3.2-0.5,6.3-1.5,9.3c-1,3-2.4,5.7-4.2,8.1c-1.8,2.4-4,4.4-6.6,5.9c-2.6,1.6-5.4,2.6-8.4,3.1l21.9,34.2h-7.3l-21.3-33.2H367v33.2
		H360.7z M367,714.4h30.8c2.8,0,5.4-0.6,7.7-1.9c2.3-1.2,4.3-2.9,5.9-4.9c1.6-2,2.9-4.3,3.8-6.9c0.9-2.6,1.3-5.3,1.3-8
		c0-2.8-0.5-5.5-1.5-8.1c-1-2.6-2.4-4.9-4.2-6.9c-1.8-2-3.8-3.6-6.2-4.8c-2.4-1.2-4.9-1.8-7.6-1.8h-30V714.4z"/>
	<path d="M438.9,674.4V663h6.2v11.4H438.9z M438.9,753.4V689h6.2v64.4H438.9z"/>
	<path d="M459.9,721c0-4.5,0.8-8.8,2.4-12.9c1.6-4,3.8-7.6,6.6-10.5c2.8-3,6.2-5.3,10.1-7.1c3.9-1.7,8.1-2.6,12.8-2.6
		c5.9,0,11,1.3,15.4,4c4.4,2.6,7.8,6.3,10.1,11l-6.1,2c-1.9-3.5-4.6-6.3-8.2-8.4c-3.5-2-7.4-3-11.6-3c-3.5,0-6.9,0.7-9.9,2.1
		c-3.1,1.4-5.7,3.3-8,5.8c-2.3,2.5-4,5.4-5.3,8.7c-1.3,3.3-1.9,7-1.9,10.8c0,3.9,0.7,7.5,2,11c1.4,3.4,3.2,6.4,5.4,8.9
		c2.3,2.5,4.9,4.5,8,6c3.1,1.5,6.3,2.2,9.8,2.2c2.2,0,4.4-0.3,6.6-1c2.2-0.7,4.2-1.5,6.1-2.6c1.9-1.1,3.5-2.3,4.8-3.8
		c1.4-1.4,2.3-3,2.8-4.5l6.1,1.7c-0.8,2.2-2.1,4.3-3.8,6.3c-1.7,1.9-3.7,3.6-6,5c-2.3,1.4-4.8,2.5-7.6,3.3c-2.8,0.8-5.6,1.2-8.6,1.2
		c-4.5,0-8.7-0.9-12.6-2.7c-3.9-1.8-7.2-4.2-10.1-7.3s-5.1-6.7-6.7-10.7C460.7,729.9,459.9,725.6,459.9,721z"/>
	<path d="M584.4,753.4h-6.2v-35.9c0-8-1.4-14-4.1-17.9c-2.7-4-6.7-5.9-11.9-5.9c-2.6,0-5.2,0.5-7.8,1.5c-2.6,1-4.9,2.4-7.1,4.2
		c-2.2,1.8-4.1,3.9-5.8,6.4c-1.7,2.4-2.8,5.1-3.6,7.9v39.9h-6.2V663h6.2v41.3c2.6-5,6.3-9,11-12c4.7-3,9.7-4.5,15-4.5
		c3.5,0,6.6,0.7,9.2,2c2.6,1.3,4.7,3.2,6.4,5.7c1.7,2.5,2.9,5.5,3.7,9c0.8,3.5,1.2,7.4,1.2,11.8V753.4z"/>
	<path d="M618.7,754.6c-3,0-5.8-0.5-8.4-1.5c-2.6-1-4.9-2.4-6.8-4.2c-1.9-1.8-3.4-3.9-4.5-6.3c-1.1-2.4-1.6-5.1-1.6-7.9
		c0-2.8,0.7-5.4,2-7.7c1.3-2.3,3.2-4.3,5.6-6c2.4-1.7,5.2-3,8.5-4c3.3-0.9,6.9-1.4,10.8-1.4c3.5,0,7,0.3,10.5,0.9
		c3.5,0.6,6.7,1.5,9.5,2.5v-6.3c0-6.1-1.7-11-5.2-14.5s-8.2-5.4-14.1-5.4c-3.2,0-6.6,0.7-10.1,2c-3.5,1.3-7,3.2-10.6,5.7l-2.5-4.2
		c8.3-5.6,16.2-8.4,23.5-8.4c7.8,0,13.9,2.2,18.4,6.7c4.5,4.5,6.7,10.7,6.7,18.6v31.4c0,2.1,0.9,3.1,2.6,3.1v5.6
		c-0.4,0.1-0.8,0.1-1.2,0.1s-0.7,0-1.1,0c-1.5,0-2.8-0.5-4.1-1.5c-1.2-1-1.9-2.4-1.9-4v-5.3c-3,3.9-6.7,6.9-11.3,8.9
		C629,753.6,624,754.6,618.7,754.6z M619.9,749.7c4.8,0,9.2-0.9,13.2-2.7c4-1.8,7.1-4.2,9-7.2c1.4-1.6,2.1-3.3,2.1-5v-11.4
		c-6.3-2.3-12.7-3.5-19.3-3.5c-6.4,0-11.6,1.3-15.6,4c-4,2.6-5.9,6.1-5.9,10.4c0,2.1,0.4,4.2,1.2,6.1c0.8,1.9,2,3.5,3.5,4.9
		c1.5,1.4,3.2,2.4,5.3,3.2C615.4,749.3,617.6,749.7,619.9,749.7z"/>
	<path d="M699.9,694.6c-5.9,0.2-10.9,1.9-15.2,5.1c-4.3,3.3-7.3,7.7-9,13.4v40.2h-6.2V689h5.8v15.8c2.2-4.5,5.2-8.2,8.8-11.1
		c3.7-2.8,7.6-4.5,11.8-4.9c0.8,0,1.6,0,2.2-0.1c0.7,0,1.2-0.1,1.7-0.1V694.6z"/>
	<path d="M735,754.6c-4.5,0-8.6-0.9-12.4-2.8c-3.8-1.9-7.1-4.3-9.8-7.4c-2.8-3.1-4.9-6.6-6.4-10.6c-1.5-4-2.3-8.1-2.3-12.4
		c0-4.5,0.7-8.7,2.2-12.8c1.5-4,3.5-7.6,6.2-10.6c2.6-3.1,5.8-5.5,9.3-7.3c3.6-1.8,7.5-2.7,11.8-2.7c2.8,0,5.5,0.4,8,1.2
		c2.5,0.8,4.8,1.9,6.9,3.3c2.1,1.4,4,3,5.8,4.8c1.7,1.8,3.2,3.8,4.5,5.8v-40h6.2v81.7c0,2.1,0.9,3.1,2.6,3.1v5.6
		c-0.4,0.1-0.8,0.1-1.1,0.1c-0.3,0-0.7,0-1,0c-1.8,0-3.3-0.6-4.4-1.7c-1.1-1.2-1.7-2.4-1.7-3.8v-7.4c-2.6,4.3-6.2,7.7-10.6,10.3
		C744.4,753.4,739.8,754.6,735,754.6z M736.1,749.1c2.2,0,4.6-0.5,7.2-1.4c2.6-0.9,5-2.2,7.2-3.8c2.2-1.6,4.1-3.4,5.6-5.5
		c1.5-2.1,2.4-4.3,2.7-6.7v-21.2c-0.9-2.3-2.2-4.5-3.9-6.6c-1.7-2.1-3.6-3.9-5.8-5.4c-2.1-1.5-4.5-2.7-6.9-3.7
		c-2.5-0.9-4.9-1.4-7.2-1.4c-3.7,0-7.1,0.8-10.1,2.4c-3,1.6-5.6,3.7-7.8,6.3c-2.2,2.6-3.9,5.6-5,8.9c-1.2,3.3-1.7,6.8-1.7,10.3
		c0,3.7,0.7,7.2,2,10.5c1.3,3.3,3.2,6.2,5.5,8.8c2.4,2.6,5.1,4.6,8.2,6.1C729.2,748.3,732.5,749.1,736.1,749.1z"/>
	<path d="M805.2,754.6c-5,0-9.7-0.8-14.2-2.5c-4.5-1.6-8.5-4.1-11.9-7.4l3.1-4.2c3.5,3.1,7.1,5.4,10.8,6.9c3.7,1.5,7.8,2.2,12.3,2.2
		c5.6,0,10.1-1.2,13.6-3.5c3.4-2.4,5.1-5.6,5.1-9.8c0-2-0.4-3.7-1.3-5c-0.9-1.4-2.2-2.5-3.9-3.5c-1.7-0.9-3.9-1.8-6.4-2.5
		c-2.6-0.7-5.5-1.5-8.9-2.4c-3.6-0.8-6.8-1.6-9.5-2.5c-2.7-0.8-4.9-1.8-6.6-3c-1.7-1.2-3-2.6-3.9-4.2c-0.9-1.7-1.3-3.8-1.3-6.3
		c0-3.2,0.6-6,1.9-8.4c1.2-2.4,2.9-4.4,5.1-5.9c2.2-1.6,4.7-2.7,7.6-3.5c2.8-0.8,5.9-1.2,9.1-1.2c5,0,9.5,0.8,13.4,2.5
		c3.9,1.7,6.9,3.9,9,6.5l-3.5,3.3c-2.1-2.5-4.9-4.3-8.4-5.6c-3.4-1.2-7.1-1.9-11-1.9c-2.4,0-4.6,0.2-6.7,0.7s-3.9,1.3-5.5,2.4
		c-1.6,1.1-2.8,2.5-3.7,4.1c-0.9,1.7-1.4,3.7-1.4,6c0,1.9,0.3,3.4,0.9,4.6c0.6,1.2,1.6,2.1,3,3c1.4,0.8,3.1,1.5,5.3,2.2
		c2.1,0.6,4.7,1.3,7.7,2c4,1,7.6,1.9,10.8,2.8c3.1,0.9,5.8,2,7.9,3.3c2.1,1.3,3.7,2.9,4.8,4.7c1.1,1.8,1.7,4.1,1.7,6.9
		c0,5.8-2.2,10.4-6.7,13.8C818.7,752.9,812.7,754.6,805.2,754.6z"/>
</g>
<g>
	<path d="M14.2,828L29,793.1h2.1L45.9,828h-2.7l-4.9-11.5H21.7L16.9,828H14.2z M30.1,796.2l-7.8,18.3h15.4L30.1,796.2z"/>
	<path d="M50.6,792.2h2.5v30.8c0,0.9,0.3,1.7,0.8,2.3c0.5,0.6,1.3,0.8,2.2,0.8c0.4,0,0.8,0,1.3-0.1c0.5-0.1,1-0.2,1.4-0.4l0.5,2
		c-0.6,0.2-1.2,0.4-2.1,0.6c-0.8,0.1-1.5,0.2-2.1,0.2c-1.4,0-2.5-0.4-3.3-1.3c-0.8-0.8-1.3-2-1.3-3.4V792.2z"/>
	<path d="M62.9,792.2h2.5v30.8c0,0.9,0.3,1.7,0.8,2.3c0.5,0.6,1.3,0.8,2.2,0.8c0.4,0,0.8,0,1.3-0.1c0.5-0.1,1-0.2,1.4-0.4l0.5,2
		c-0.6,0.2-1.2,0.4-2.1,0.6c-0.8,0.1-1.5,0.2-2.1,0.2c-1.4,0-2.5-0.4-3.3-1.3c-0.8-0.8-1.3-2-1.3-3.4V792.2z"/>
	<path d="M98.4,804.7c-2.3,0.1-4.3,0.7-6,2c-1.7,1.3-2.9,3.1-3.6,5.3v16h-2.5v-25.5h2.3v6.3c0.9-1.8,2.1-3.3,3.5-4.4
		c1.5-1.1,3-1.8,4.7-1.9c0.3,0,0.6,0,0.9,0c0.3,0,0.5,0,0.7,0V804.7z"/>
	<path d="M112.5,828.5c-1.8,0-3.5-0.4-5-1.1s-2.8-1.7-4-2.9c-1.1-1.2-2-2.6-2.6-4.2c-0.6-1.6-0.9-3.3-0.9-5.1c0-1.8,0.3-3.5,1-5.1
		c0.6-1.6,1.5-3,2.7-4.2s2.4-2.2,4-2.9c1.5-0.7,3.1-1.1,4.9-1.1s3.4,0.4,4.9,1.1c1.5,0.7,2.8,1.7,4,2.9s2,2.6,2.7,4.2
		c0.6,1.6,1,3.3,1,5.1c0,1.8-0.3,3.5-1,5.1c-0.6,1.6-1.5,3-2.6,4.2c-1.1,1.2-2.4,2.2-4,2.9C115.9,828.1,114.2,828.5,112.5,828.5z
		 M102.5,815.4c0,1.5,0.3,2.9,0.8,4.2c0.5,1.3,1.2,2.5,2.1,3.5c0.9,1,2,1.8,3.2,2.3c1.2,0.6,2.5,0.9,3.9,0.9s2.7-0.3,3.9-0.9
		c1.2-0.6,2.3-1.4,3.2-2.4c0.9-1,1.6-2.2,2.2-3.5s0.8-2.8,0.8-4.3c0-1.5-0.3-2.9-0.8-4.2s-1.3-2.5-2.2-3.5c-0.9-1-2-1.8-3.2-2.4
		c-1.2-0.6-2.5-0.9-3.9-0.9c-1.3,0-2.6,0.3-3.8,0.9c-1.2,0.6-2.3,1.4-3.2,2.4c-0.9,1-1.6,2.2-2.2,3.6
		C102.8,812.4,102.5,813.9,102.5,815.4z"/>
	<path d="M138.7,828.5c-5.5,0-8.2-3.8-8.2-11.3v-14.7h2.5v14.4c0,6.3,2.1,9.4,6.4,9.4c1.1,0,2.1-0.2,3.2-0.6s2-0.9,2.9-1.6
		c0.9-0.7,1.7-1.5,2.3-2.4c0.7-0.9,1.2-2,1.6-3.1v-16.1h2.5v22.1c0,0.8,0.3,1.2,1,1.2v2.2c-0.2,0-0.4,0-0.5,0c-0.1,0-0.3,0-0.4,0
		c-0.7,0-1.3-0.2-1.7-0.6c-0.4-0.4-0.7-0.9-0.7-1.6V822c-1.1,2.1-2.7,3.7-4.6,4.8C143,827.9,140.9,828.5,138.7,828.5z"/>
	<path d="M180.5,828H178v-14.2c0-3.3-0.5-5.7-1.4-7.2s-2.4-2.3-4.5-2.3c-1.1,0-2.2,0.2-3.2,0.6c-1.1,0.4-2,0.9-2.9,1.7
		c-0.9,0.7-1.7,1.6-2.4,2.5c-0.7,1-1.2,2-1.5,3.1V828h-2.5v-25.5h2.3v6.1c0.5-1,1.2-1.9,2-2.7c0.8-0.8,1.7-1.5,2.6-2.1
		c0.9-0.6,2-1,3.1-1.3c1.1-0.3,2.2-0.5,3.4-0.5c2.8,0,4.7,1,5.9,2.9c1.1,1.9,1.7,4.7,1.7,8.4V828z"/>
	<path d="M198.3,828.5c-1.8,0-3.4-0.4-4.9-1.1c-1.5-0.7-2.8-1.7-3.9-2.9c-1.1-1.2-1.9-2.6-2.6-4.2c-0.6-1.6-0.9-3.2-0.9-4.9
		c0-1.8,0.3-3.5,0.9-5.1c0.6-1.6,1.4-3,2.5-4.2c1-1.2,2.3-2.2,3.7-2.9c1.4-0.7,3-1.1,4.7-1.1c1.1,0,2.2,0.2,3.2,0.5
		c1,0.3,1.9,0.8,2.7,1.3s1.6,1.2,2.3,1.9c0.7,0.7,1.3,1.5,1.8,2.3v-15.9h2.5v32.4c0,0.8,0.3,1.2,1,1.2v2.2c-0.2,0-0.3,0-0.4,0
		c-0.1,0-0.3,0-0.4,0c-0.7,0-1.3-0.2-1.7-0.7s-0.7-1-0.7-1.5v-2.9c-1,1.7-2.4,3.1-4.2,4.1C202,828,200.2,828.5,198.3,828.5z
		 M198.7,826.3c0.9,0,1.8-0.2,2.8-0.5c1-0.4,2-0.9,2.8-1.5c0.9-0.6,1.6-1.4,2.2-2.2c0.6-0.8,1-1.7,1.1-2.7V811
		c-0.4-0.9-0.9-1.8-1.5-2.6c-0.7-0.8-1.4-1.6-2.3-2.2c-0.9-0.6-1.8-1.1-2.7-1.4c-1-0.4-1.9-0.5-2.8-0.5c-1.5,0-2.8,0.3-4,1
		c-1.2,0.6-2.2,1.5-3.1,2.5c-0.9,1-1.5,2.2-2,3.5c-0.5,1.3-0.7,2.7-0.7,4.1c0,1.5,0.3,2.9,0.8,4.2c0.5,1.3,1.3,2.5,2.2,3.5
		c0.9,1,2,1.8,3.2,2.4S197.3,826.3,198.7,826.3z"/>
	<path d="M242.3,826.8c-0.1,0.1-0.4,0.2-0.7,0.4c-0.3,0.2-0.7,0.4-1.2,0.5c-0.5,0.2-1,0.3-1.6,0.4c-0.6,0.1-1.2,0.2-1.9,0.2
		c-0.7,0-1.3-0.1-1.9-0.3c-0.6-0.2-1.1-0.5-1.6-0.9c-0.5-0.4-0.8-0.9-1.1-1.4c-0.3-0.6-0.4-1.2-0.4-2v-19.2h-3.6v-2h3.6v-8.7h2.5
		v8.7h6v2h-6v18.7c0,0.9,0.3,1.7,1,2.1c0.7,0.5,1.4,0.7,2.3,0.7c1,0,1.9-0.2,2.6-0.5c0.7-0.3,1.2-0.6,1.4-0.7L242.3,826.8z"/>
	<path d="M257.3,828.5c-1.8,0-3.5-0.4-5-1.1c-1.5-0.7-2.9-1.7-4-2.9c-1.1-1.2-2-2.6-2.7-4.2c-0.6-1.6-1-3.3-1-5.2
		c0-1.8,0.3-3.5,1-5.1c0.6-1.6,1.5-3,2.6-4.2c1.1-1.2,2.4-2.1,4-2.8c1.5-0.7,3.2-1,5-1c1.8,0,3.5,0.4,5,1.1c1.5,0.7,2.8,1.7,4,2.8
		c1.1,1.2,2,2.6,2.6,4.2c0.6,1.6,1,3.3,1,5c0,0.2,0,0.4,0,0.6c0,0.2,0,0.4,0,0.5h-22.4c0.1,1.5,0.4,2.8,1,4.1
		c0.6,1.3,1.3,2.3,2.2,3.3c0.9,0.9,1.9,1.6,3.1,2.2c1.2,0.5,2.4,0.8,3.8,0.8c0.9,0,1.8-0.1,2.6-0.4c0.9-0.2,1.7-0.6,2.4-1
		c0.7-0.4,1.4-0.9,2-1.5c0.6-0.6,1-1.3,1.3-2l2.2,0.6c-0.4,0.9-0.9,1.8-1.6,2.5c-0.7,0.8-1.5,1.4-2.5,2c-0.9,0.6-2,1-3.1,1.3
		C259.6,828.3,258.5,828.5,257.3,828.5z M267.3,814.3c-0.1-1.5-0.4-2.9-1-4.1c-0.6-1.2-1.3-2.3-2.2-3.2c-0.9-0.9-1.9-1.6-3.1-2.1
		c-1.2-0.5-2.4-0.8-3.8-0.8s-2.6,0.3-3.8,0.8c-1.2,0.5-2.2,1.2-3.1,2.1c-0.9,0.9-1.6,2-2.2,3.2s-0.9,2.6-1,4.1H267.3z"/>
	<path d="M273.3,815.1c0-1.8,0.3-3.5,0.9-5.1c0.6-1.6,1.5-3,2.6-4.2s2.5-2.1,4-2.8c1.5-0.7,3.2-1,5.1-1c2.3,0,4.4,0.5,6.1,1.6
		c1.8,1,3.1,2.5,4,4.4l-2.4,0.8c-0.8-1.4-1.8-2.5-3.2-3.3c-1.4-0.8-2.9-1.2-4.6-1.2c-1.4,0-2.7,0.3-3.9,0.8
		c-1.2,0.6-2.3,1.3-3.2,2.3c-0.9,1-1.6,2.1-2.1,3.5c-0.5,1.3-0.8,2.8-0.8,4.3c0,1.5,0.3,3,0.8,4.3c0.5,1.4,1.3,2.5,2.2,3.5
		c0.9,1,2,1.8,3.2,2.4c1.2,0.6,2.5,0.9,3.9,0.9c0.9,0,1.8-0.1,2.6-0.4c0.9-0.3,1.7-0.6,2.4-1c0.7-0.4,1.4-0.9,1.9-1.5
		c0.5-0.6,0.9-1.2,1.1-1.8l2.4,0.7c-0.3,0.9-0.8,1.7-1.5,2.5c-0.7,0.8-1.5,1.4-2.4,2c-0.9,0.6-1.9,1-3,1.3c-1.1,0.3-2.2,0.5-3.4,0.5
		c-1.8,0-3.5-0.4-5-1.1c-1.5-0.7-2.9-1.7-4-2.9c-1.1-1.2-2-2.6-2.7-4.2C273.7,818.7,273.3,817,273.3,815.1z"/>
	<path d="M322.7,828h-2.5v-14.2c0-3.2-0.5-5.5-1.6-7.1c-1.1-1.6-2.7-2.4-4.7-2.4c-1,0-2.1,0.2-3.1,0.6c-1,0.4-2,0.9-2.8,1.7
		c-0.9,0.7-1.6,1.6-2.3,2.5c-0.7,1-1.1,2-1.4,3.1V828h-2.5v-35.8h2.5v16.4c1-2,2.5-3.6,4.3-4.8c1.8-1.2,3.8-1.8,6-1.8
		c1.4,0,2.6,0.3,3.6,0.8c1,0.5,1.9,1.3,2.5,2.3c0.7,1,1.2,2.2,1.5,3.6c0.3,1.4,0.5,3,0.5,4.7V828z"/>
	<path d="M353.2,828.4c-1.8,0-3.4-0.4-4.9-1.1c-1.5-0.7-2.7-1.7-3.8-2.9c-1.1-1.2-1.9-2.6-2.5-4.2c-0.6-1.6-0.9-3.2-0.9-4.9
		c0-1.7,0.3-3.4,0.9-5c0.6-1.6,1.4-3,2.4-4.2c1-1.2,2.3-2.2,3.8-2.9c1.5-0.7,3.1-1.1,4.8-1.1c2.2,0,4.2,0.6,5.8,1.7
		c1.7,1.2,3.1,2.6,4.2,4.2v-5.5h2.2v26c0,1.7-0.3,3.3-1,4.6c-0.7,1.3-1.5,2.4-2.6,3.3c-1.1,0.9-2.4,1.5-3.8,2
		c-1.5,0.4-3,0.7-4.6,0.7c-1.5,0-2.8-0.1-4-0.4c-1.2-0.3-2.2-0.7-3.1-1.2c-0.9-0.5-1.7-1.1-2.4-1.9c-0.7-0.7-1.3-1.5-1.8-2.4
		l1.7-1.1c1,1.7,2.4,3,4.1,3.8c1.7,0.8,3.6,1.2,5.5,1.2c1.3,0,2.5-0.2,3.7-0.5c1.2-0.4,2.2-0.9,3-1.6c0.9-0.7,1.6-1.6,2.1-2.6
		c0.5-1,0.8-2.3,0.8-3.7v-5.6c-1,1.6-2.4,3-4.2,4C356.8,827.9,355,828.4,353.2,828.4z M353.8,826.3c1.1,0,2.1-0.2,3.1-0.6
		c1-0.4,1.9-0.9,2.8-1.6c0.8-0.7,1.5-1.4,2.1-2.2c0.6-0.8,0.9-1.6,1-2.5V811c-0.4-1-0.9-1.9-1.6-2.7c-0.7-0.8-1.4-1.5-2.2-2.1
		c-0.8-0.6-1.7-1.1-2.7-1.4c-1-0.3-1.9-0.5-2.9-0.5c-1.5,0-2.9,0.3-4.1,1c-1.2,0.7-2.2,1.5-3.1,2.6c-0.8,1-1.5,2.2-1.9,3.6
		c-0.4,1.3-0.7,2.7-0.7,4c0,1.5,0.3,2.9,0.8,4.2c0.5,1.3,1.3,2.5,2.2,3.5c0.9,1,2,1.8,3.2,2.4S352.3,826.3,353.8,826.3z"/>
	<path d="M380.7,828.5c-5.5,0-8.2-3.8-8.2-11.3v-14.7h2.5v14.4c0,6.3,2.1,9.4,6.4,9.4c1.1,0,2.1-0.2,3.2-0.6s2-0.9,2.9-1.6
		c0.9-0.7,1.7-1.5,2.3-2.4c0.7-0.9,1.2-2,1.6-3.1v-16.1h2.5v22.1c0,0.8,0.3,1.2,1,1.2v2.2c-0.2,0-0.4,0-0.5,0c-0.1,0-0.3,0-0.4,0
		c-0.7,0-1.3-0.2-1.7-0.6c-0.4-0.4-0.7-0.9-0.7-1.6V822c-1.1,2.1-2.7,3.7-4.6,4.8C385,827.9,382.9,828.5,380.7,828.5z"/>
	<path d="M403.3,836.7c0.3,0,0.7,0,1.3,0c0.6,0,1-0.1,1.3-0.3c0.1-0.1,0.3-0.2,0.5-0.5c0.2-0.2,0.4-0.7,0.7-1.3
		c0.3-0.6,0.7-1.4,1.1-2.5c0.5-1.1,1-2.4,1.7-4.1l-11.4-25.5h2.6l10.1,23.1l9.5-23.1h2.4l-14,33.6c-0.5,1.2-1.1,2-1.9,2.3
		c-0.8,0.4-1.8,0.6-2.9,0.6c-0.2,0-0.3,0-0.5,0c-0.2,0-0.3,0-0.5,0V836.7z"/>
	<path d="M445.9,828.5c-1.2,0-2.3-0.2-3.3-0.6c-1-0.4-1.9-1-2.7-1.7c-0.8-0.7-1.4-1.5-1.8-2.5c-0.4-1-0.6-2-0.6-3.1
		c0-1.1,0.3-2.1,0.8-3c0.5-0.9,1.3-1.7,2.2-2.4c0.9-0.7,2.1-1.2,3.4-1.6c1.3-0.4,2.7-0.6,4.3-0.6c1.4,0,2.8,0.1,4.2,0.4
		c1.4,0.2,2.7,0.6,3.8,1v-2.5c0-2.4-0.7-4.3-2.1-5.8c-1.4-1.4-3.2-2.1-5.6-2.1c-1.3,0-2.6,0.3-4,0.8c-1.4,0.5-2.8,1.3-4.2,2.3
		l-1-1.7c3.3-2.2,6.4-3.3,9.3-3.3c3.1,0,5.5,0.9,7.3,2.7c1.8,1.8,2.7,4.2,2.7,7.4v12.5c0,0.8,0.3,1.2,1,1.2v2.2c-0.2,0-0.3,0-0.5,0
		s-0.3,0-0.4,0c-0.6,0-1.1-0.2-1.6-0.6c-0.5-0.4-0.7-0.9-0.7-1.6v-2.1c-1.2,1.5-2.7,2.7-4.5,3.5C450,828.1,448.1,828.5,445.9,828.5z
		 M446.4,826.5c1.9,0,3.6-0.4,5.3-1.1c1.6-0.7,2.8-1.7,3.6-2.9c0.6-0.7,0.8-1.3,0.8-2v-4.5c-2.5-0.9-5-1.4-7.7-1.4
		c-2.6,0-4.6,0.5-6.2,1.6c-1.6,1-2.4,2.4-2.4,4.1c0,0.9,0.2,1.7,0.5,2.4s0.8,1.4,1.4,1.9s1.3,1,2.1,1.3
		C444.7,826.4,445.5,826.5,446.4,826.5z"/>
	<path d="M486.9,828h-2.5v-14.2c0-3.3-0.5-5.7-1.4-7.2s-2.4-2.3-4.5-2.3c-1.1,0-2.2,0.2-3.2,0.6c-1.1,0.4-2,0.9-2.9,1.7
		c-0.9,0.7-1.7,1.6-2.4,2.5c-0.7,1-1.2,2-1.5,3.1V828h-2.5v-25.5h2.3v6.1c0.5-1,1.2-1.9,2-2.7c0.8-0.8,1.7-1.5,2.6-2.1
		c0.9-0.6,2-1,3.1-1.3c1.1-0.3,2.2-0.5,3.4-0.5c2.8,0,4.7,1,5.9,2.9c1.1,1.9,1.7,4.7,1.7,8.4V828z"/>
	<path d="M504.7,828.5c-1.8,0-3.4-0.4-4.9-1.1s-2.8-1.7-3.9-2.9s-1.9-2.6-2.6-4.2c-0.6-1.6-0.9-3.2-0.9-4.9c0-1.8,0.3-3.5,0.9-5.1
		c0.6-1.6,1.4-3,2.5-4.2c1-1.2,2.3-2.2,3.7-2.9c1.4-0.7,3-1.1,4.7-1.1c1.1,0,2.2,0.2,3.2,0.5c1,0.3,1.9,0.8,2.7,1.3s1.6,1.2,2.3,1.9
		c0.7,0.7,1.3,1.5,1.8,2.3v-15.9h2.5v32.4c0,0.8,0.3,1.2,1,1.2v2.2c-0.2,0-0.3,0-0.4,0c-0.1,0-0.3,0-0.4,0c-0.7,0-1.3-0.2-1.7-0.7
		c-0.4-0.5-0.7-1-0.7-1.5v-2.9c-1,1.7-2.4,3.1-4.2,4.1C508.5,828,506.6,828.5,504.7,828.5z M505.2,826.3c0.9,0,1.8-0.2,2.8-0.5
		c1-0.4,2-0.9,2.8-1.5s1.6-1.4,2.2-2.2c0.6-0.8,1-1.7,1.1-2.7V811c-0.4-0.9-0.9-1.8-1.5-2.6c-0.7-0.8-1.4-1.6-2.3-2.2
		c-0.9-0.6-1.8-1.1-2.7-1.4c-1-0.4-1.9-0.5-2.8-0.5c-1.5,0-2.8,0.3-4,1c-1.2,0.6-2.2,1.5-3.1,2.5c-0.9,1-1.5,2.2-2,3.5
		c-0.5,1.3-0.7,2.7-0.7,4.1c0,1.5,0.3,2.9,0.8,4.2c0.5,1.3,1.3,2.5,2.2,3.5c0.9,1,2,1.8,3.2,2.4C502.4,826,503.8,826.3,505.2,826.3z
		"/>
	<path d="M568.3,802.5h2.5l-11,25.5h-2.1l-5.7-13.5l-5.7,13.5h-2.1l-11-25.5h2.4l9.8,22.8l5.4-12.6l-4.4-10.2h2.2l3.5,8.4l3.5-8.4
		h2.2l-4.3,10.2l5.3,12.6L568.3,802.5z"/>
	<path d="M586.4,828.5c-1.8,0-3.5-0.4-5-1.1c-1.5-0.7-2.9-1.7-4-2.9c-1.1-1.2-2-2.6-2.7-4.2c-0.6-1.6-1-3.3-1-5.2
		c0-1.8,0.3-3.5,1-5.1c0.6-1.6,1.5-3,2.6-4.2c1.1-1.2,2.4-2.1,4-2.8s3.2-1,5-1c1.8,0,3.5,0.4,5,1.1c1.5,0.7,2.8,1.7,4,2.8
		c1.1,1.2,2,2.6,2.6,4.2c0.6,1.6,1,3.3,1,5c0,0.2,0,0.4,0,0.6c0,0.2,0,0.4,0,0.5h-22.4c0.1,1.5,0.4,2.8,1,4.1
		c0.6,1.3,1.3,2.3,2.2,3.3c0.9,0.9,1.9,1.6,3.1,2.2c1.2,0.5,2.4,0.8,3.8,0.8c0.9,0,1.8-0.1,2.6-0.4c0.9-0.2,1.7-0.6,2.4-1
		c0.7-0.4,1.4-0.9,2-1.5c0.6-0.6,1-1.3,1.3-2l2.2,0.6c-0.4,0.9-0.9,1.8-1.6,2.5c-0.7,0.8-1.5,1.4-2.5,2c-0.9,0.6-2,1-3.1,1.3
		C588.7,828.3,587.6,828.5,586.4,828.5z M596.4,814.3c-0.1-1.5-0.4-2.9-1-4.1c-0.6-1.2-1.3-2.3-2.2-3.2s-1.9-1.6-3.1-2.1
		c-1.2-0.5-2.4-0.8-3.8-0.8c-1.3,0-2.6,0.3-3.8,0.8c-1.2,0.5-2.2,1.2-3.1,2.1c-0.9,0.9-1.6,2-2.2,3.2c-0.5,1.3-0.9,2.6-1,4.1H596.4z
		"/>
	<path d="M616.1,828.5c-2,0-3.9-0.5-5.6-1.6c-1.7-1-3.1-2.4-4.1-4v5.1h-2.2v-35.8h2.5V808c1.2-1.8,2.6-3.2,4.3-4.3
		c1.6-1.1,3.5-1.7,5.7-1.7c1.8,0,3.4,0.4,4.9,1.2s2.7,1.8,3.7,3c1,1.3,1.8,2.7,2.3,4.3s0.8,3.2,0.8,4.8c0,1.8-0.3,3.4-0.9,5
		c-0.6,1.6-1.5,3-2.6,4.2c-1.1,1.2-2.4,2.2-3.9,2.9S617.8,828.5,616.1,828.5z M615.6,826.3c1.5,0,2.8-0.3,4.1-0.9
		c1.2-0.6,2.3-1.4,3.2-2.5c0.9-1,1.6-2.2,2.1-3.5c0.5-1.3,0.8-2.7,0.8-4c0-1.4-0.2-2.8-0.7-4.1s-1.1-2.5-2-3.5
		c-0.9-1-1.9-1.9-3.1-2.5c-1.2-0.6-2.5-0.9-4-0.9c-1.1,0-2.1,0.2-3.1,0.6c-1,0.4-1.8,0.9-2.7,1.5c-0.8,0.6-1.5,1.3-2.1,2.2
		c-0.6,0.8-1.1,1.7-1.6,2.6v8.4c0.1,1,0.4,1.8,1.1,2.7c0.6,0.8,1.3,1.6,2.2,2.2c0.9,0.6,1.8,1.1,2.8,1.4
		C613.7,826.1,614.7,826.3,615.6,826.3z"/>
	<path d="M657.5,828.5c-1.8,0-3.4-0.4-4.9-1.1s-2.8-1.7-3.9-2.9s-1.9-2.6-2.6-4.2c-0.6-1.6-0.9-3.2-0.9-4.9c0-1.8,0.3-3.5,0.9-5.1
		c0.6-1.6,1.4-3,2.5-4.2c1-1.2,2.3-2.2,3.7-2.9c1.4-0.7,3-1.1,4.7-1.1c1.1,0,2.2,0.2,3.2,0.5c1,0.3,1.9,0.8,2.7,1.3s1.6,1.2,2.3,1.9
		c0.7,0.7,1.3,1.5,1.8,2.3v-15.9h2.5v32.4c0,0.8,0.3,1.2,1,1.2v2.2c-0.2,0-0.3,0-0.4,0c-0.1,0-0.3,0-0.4,0c-0.7,0-1.3-0.2-1.7-0.7
		c-0.4-0.5-0.7-1-0.7-1.5v-2.9c-1,1.7-2.4,3.1-4.2,4.1C661.2,828,659.4,828.5,657.5,828.5z M657.9,826.3c0.9,0,1.8-0.2,2.8-0.5
		c1-0.4,2-0.9,2.8-1.5s1.6-1.4,2.2-2.2c0.6-0.8,1-1.7,1.1-2.7V811c-0.4-0.9-0.9-1.8-1.5-2.6c-0.7-0.8-1.4-1.6-2.3-2.2
		c-0.9-0.6-1.8-1.1-2.7-1.4c-1-0.4-1.9-0.5-2.8-0.5c-1.5,0-2.8,0.3-4,1c-1.2,0.6-2.2,1.5-3.1,2.5c-0.9,1-1.5,2.2-2,3.5
		c-0.5,1.3-0.7,2.7-0.7,4.1c0,1.5,0.3,2.9,0.8,4.2c0.5,1.3,1.3,2.5,2.2,3.5c0.9,1,2,1.8,3.2,2.4C655.2,826,656.5,826.3,657.9,826.3z
		"/>
	<path d="M688.1,828.5c-1.8,0-3.5-0.4-5-1.1c-1.5-0.7-2.9-1.7-4-2.9c-1.1-1.2-2-2.6-2.7-4.2c-0.6-1.6-1-3.3-1-5.2
		c0-1.8,0.3-3.5,1-5.1c0.6-1.6,1.5-3,2.6-4.2c1.1-1.2,2.4-2.1,4-2.8s3.2-1,5-1c1.8,0,3.5,0.4,5,1.1c1.5,0.7,2.8,1.7,4,2.8
		c1.1,1.2,2,2.6,2.6,4.2c0.6,1.6,1,3.3,1,5c0,0.2,0,0.4,0,0.6c0,0.2,0,0.4,0,0.5H678c0.1,1.5,0.4,2.8,1,4.1c0.6,1.3,1.3,2.3,2.2,3.3
		c0.9,0.9,1.9,1.6,3.1,2.2c1.2,0.5,2.4,0.8,3.8,0.8c0.9,0,1.8-0.1,2.6-0.4c0.9-0.2,1.7-0.6,2.4-1c0.7-0.4,1.4-0.9,2-1.5
		c0.6-0.6,1-1.3,1.3-2l2.2,0.6c-0.4,0.9-0.9,1.8-1.6,2.5c-0.7,0.8-1.5,1.4-2.5,2c-0.9,0.6-2,1-3.1,1.3
		C690.4,828.3,689.3,828.5,688.1,828.5z M698.1,814.3c-0.1-1.5-0.4-2.9-1-4.1c-0.6-1.2-1.3-2.3-2.2-3.2s-1.9-1.6-3.1-2.1
		c-1.2-0.5-2.4-0.8-3.8-0.8c-1.3,0-2.6,0.3-3.8,0.8c-1.2,0.5-2.2,1.2-3.1,2.1c-0.9,0.9-1.6,2-2.2,3.2c-0.5,1.3-0.9,2.6-1,4.1H698.1z
		"/>
	<path d="M714,828.5c-2,0-3.8-0.3-5.6-1s-3.4-1.6-4.7-2.9l1.2-1.7c1.4,1.2,2.8,2.2,4.3,2.7c1.5,0.6,3.1,0.9,4.9,0.9
		c2.2,0,4-0.5,5.4-1.4c1.4-0.9,2-2.2,2-3.9c0-0.8-0.2-1.4-0.5-2c-0.3-0.5-0.9-1-1.5-1.4c-0.7-0.4-1.5-0.7-2.6-1
		c-1-0.3-2.2-0.6-3.5-0.9c-1.4-0.3-2.7-0.7-3.8-1c-1.1-0.3-1.9-0.7-2.6-1.2c-0.7-0.5-1.2-1-1.5-1.7c-0.3-0.7-0.5-1.5-0.5-2.5
		c0-1.3,0.2-2.4,0.7-3.3c0.5-0.9,1.2-1.7,2-2.4c0.9-0.6,1.9-1.1,3-1.4c1.1-0.3,2.3-0.5,3.6-0.5c2,0,3.8,0.3,5.3,1
		c1.5,0.7,2.7,1.5,3.6,2.6l-1.4,1.3c-0.9-1-2-1.7-3.3-2.2c-1.4-0.5-2.8-0.7-4.3-0.7c-0.9,0-1.8,0.1-2.7,0.3
		c-0.8,0.2-1.6,0.5-2.2,0.9c-0.6,0.4-1.1,1-1.5,1.6c-0.4,0.7-0.5,1.5-0.5,2.4c0,0.8,0.1,1.4,0.4,1.8s0.6,0.9,1.2,1.2
		c0.5,0.3,1.2,0.6,2.1,0.9c0.9,0.2,1.9,0.5,3,0.8c1.6,0.4,3,0.8,4.3,1.1c1.2,0.4,2.3,0.8,3.1,1.3c0.8,0.5,1.5,1.1,1.9,1.9
		c0.4,0.7,0.7,1.6,0.7,2.7c0,2.3-0.9,4.1-2.7,5.5C719.3,827.8,717,828.5,714,828.5z"/>
	<path d="M729.5,796.7v-4.5h2.5v4.5H729.5z M729.5,828v-25.5h2.5V828H729.5z"/>
	<path d="M749.9,828.4c-1.8,0-3.4-0.4-4.9-1.1s-2.7-1.7-3.8-2.9c-1.1-1.2-1.9-2.6-2.5-4.2c-0.6-1.6-0.9-3.2-0.9-4.9
		c0-1.7,0.3-3.4,0.9-5c0.6-1.6,1.4-3,2.4-4.2c1-1.2,2.3-2.2,3.8-2.9c1.5-0.7,3.1-1.1,4.8-1.1c2.2,0,4.2,0.6,5.8,1.7
		c1.7,1.2,3.1,2.6,4.2,4.2v-5.5h2.2v26c0,1.7-0.3,3.3-1,4.6c-0.7,1.3-1.5,2.4-2.6,3.3s-2.4,1.5-3.8,2c-1.5,0.4-3,0.7-4.6,0.7
		c-1.5,0-2.8-0.1-4-0.4c-1.2-0.3-2.2-0.7-3.1-1.2c-0.9-0.5-1.7-1.1-2.4-1.9c-0.7-0.7-1.3-1.5-1.8-2.4l1.7-1.1c1,1.7,2.4,3,4.1,3.8
		s3.6,1.2,5.5,1.2c1.3,0,2.5-0.2,3.7-0.5c1.2-0.4,2.2-0.9,3-1.6c0.9-0.7,1.6-1.6,2.1-2.6c0.5-1,0.8-2.3,0.8-3.7v-5.6
		c-1,1.6-2.4,3-4.2,4C753.5,827.9,751.7,828.4,749.9,828.4z M750.5,826.3c1.1,0,2.1-0.2,3.1-0.6s1.9-0.9,2.8-1.6
		c0.8-0.7,1.5-1.4,2.1-2.2c0.6-0.8,0.9-1.6,1-2.5V811c-0.4-1-0.9-1.9-1.6-2.7s-1.4-1.5-2.2-2.1c-0.8-0.6-1.7-1.1-2.7-1.4
		c-1-0.3-1.9-0.5-2.9-0.5c-1.5,0-2.9,0.3-4.1,1s-2.2,1.5-3.1,2.6c-0.8,1-1.5,2.2-1.9,3.6s-0.7,2.7-0.7,4c0,1.5,0.3,2.9,0.8,4.2
		c0.5,1.3,1.3,2.5,2.2,3.5c0.9,1,2,1.8,3.2,2.4C747.7,826,749,826.3,750.5,826.3z"/>
	<path d="M790.3,828h-2.5v-14.2c0-3.3-0.5-5.7-1.4-7.2s-2.4-2.3-4.5-2.3c-1.1,0-2.2,0.2-3.2,0.6c-1.1,0.4-2,0.9-2.9,1.7
		c-0.9,0.7-1.7,1.6-2.4,2.5c-0.7,1-1.2,2-1.5,3.1V828h-2.5v-25.5h2.3v6.1c0.5-1,1.2-1.9,2-2.7c0.8-0.8,1.7-1.5,2.6-2.1
		c0.9-0.6,2-1,3.1-1.3c1.1-0.3,2.2-0.5,3.4-0.5c2.8,0,4.7,1,5.9,2.9c1.1,1.9,1.7,4.7,1.7,8.4V828z"/>
	<path d="M808.5,828.5c-1.8,0-3.5-0.4-5-1.1c-1.5-0.7-2.9-1.7-4-2.9c-1.1-1.2-2-2.6-2.7-4.2c-0.6-1.6-1-3.3-1-5.2
		c0-1.8,0.3-3.5,1-5.1c0.6-1.6,1.5-3,2.6-4.2c1.1-1.2,2.4-2.1,4-2.8s3.2-1,5-1c1.8,0,3.5,0.4,5,1.1c1.5,0.7,2.8,1.7,4,2.8
		c1.1,1.2,2,2.6,2.6,4.2c0.6,1.6,1,3.3,1,5c0,0.2,0,0.4,0,0.6c0,0.2,0,0.4,0,0.5h-22.4c0.1,1.5,0.4,2.8,1,4.1
		c0.6,1.3,1.3,2.3,2.2,3.3c0.9,0.9,1.9,1.6,3.1,2.2c1.2,0.5,2.4,0.8,3.8,0.8c0.9,0,1.8-0.1,2.6-0.4c0.9-0.2,1.7-0.6,2.4-1
		c0.7-0.4,1.4-0.9,2-1.5c0.6-0.6,1-1.3,1.3-2l2.2,0.6c-0.4,0.9-0.9,1.8-1.6,2.5c-0.7,0.8-1.5,1.4-2.5,2c-0.9,0.6-2,1-3.1,1.3
		C810.8,828.3,809.7,828.5,808.5,828.5z M818.5,814.3c-0.1-1.5-0.4-2.9-1-4.1c-0.6-1.2-1.3-2.3-2.2-3.2s-1.9-1.6-3.1-2.1
		c-1.2-0.5-2.4-0.8-3.8-0.8c-1.3,0-2.6,0.3-3.8,0.8c-1.2,0.5-2.2,1.2-3.1,2.1c-0.9,0.9-1.6,2-2.2,3.2c-0.5,1.3-0.9,2.6-1,4.1H818.5z
		"/>
	<path d="M838.3,804.7c-2.3,0.1-4.3,0.7-6,2s-2.9,3.1-3.6,5.3v16h-2.5v-25.5h2.3v6.3c0.9-1.8,2.1-3.3,3.5-4.4s3-1.8,4.7-1.9
		c0.3,0,0.6,0,0.9,0c0.3,0,0.5,0,0.7,0V804.7z"/>
</g>
</svg>
